<svg xmlns="http://www.w3.org/2000/svg" width="564" height="1080"><linearGradient id="a" x1="153.24" x2="446.72" y1="1011.3" y2="1011.3" gradientUnits="userSpaceOnUse"><stop offset=".01" stop-color="#412683"/><stop offset=".59" stop-color="#361D62"/><stop offset=".73" stop-color="#331B5A"/><stop offset=".97" stop-color="#251B38"/></linearGradient><path fill="url(#a)" d="M438.83 1000.2l-53.79-70.4-128 16.33-85.63 41.93-18.16 69.19v20.33s237.86 34.3 286.33 0c2.65-1.88 5.01-3.54 7.14-5.03l-7.89-72.3z"/><linearGradient id="b" x1="102.4" x2="208.14" y1="799.34" y2="799.34" gradientUnits="userSpaceOnUse"><stop offset=".01" stop-color="#E7AB8B"/><stop offset=".33" stop-color="#E8AE8E"/><stop offset=".59" stop-color="#EBB698"/><stop offset=".82" stop-color="#F1C5A9"/><stop offset="1" stop-color="#F7D5BC"/></linearGradient><path fill="url(#b)" stroke="#0B0B0B" stroke-miterlimit="10" d="M207.95 724.87c-2.5-14.57-9.4-27-25.71-30.88-15.44-3.66-39.34-6.15-51.5 5-13.46 12.3-13.4 27.56-15.33 44.51-8.41 74-22.38 158.75-3.88 163.28 65.33 16.01 99.45-164.2 96.42-181.92z"/><linearGradient id="c" x1="383.84" x2="431.71" y1="841.54" y2="841.54" gradientTransform="matrix(1.1654 -.01 -.01 1.093 -47.2 -60.03)" gradientUnits="userSpaceOnUse"><stop offset=".01" stop-color="#C19075"/><stop offset=".52" stop-color="#E7AB8B"/><stop offset=".71" stop-color="#E8AD8D"/><stop offset=".82" stop-color="#EAB495"/><stop offset=".91" stop-color="#EFC0A3"/><stop offset=".98" stop-color="#F5D0B7"/><stop offset="1" stop-color="#F7D5BC"/></linearGradient><path fill="url(#c)" stroke="#0B0B0B" stroke-miterlimit="10" d="M393.3 681.51s32.68 14.81 46.5 60.13c7.68 25.15 4.55 33.63-5.68 130.3-4.86 45.92 10.48 57.16 12.06 89.25 1.78 36.08-6.83 68.74-6.83 68.74l-37.38-5.75-8.66-342.59z"/><path fill="#fff" d="M193.38 1033l-.22-.15c-.02.5.04.6.22.1z"/><circle cx="329.41" cy="755.62" r="6.55" fill="#999"/><circle cx="322.6" cy="817.92" r="6.55" fill="#999"/><circle cx="313.7" cy="872.81" r="6.55" fill="#999"/><circle cx="312.22" cy="926.22" r="6.55" fill="#999"/><circle cx="316.67" cy="979.63" r="6.55" fill="#999"/><linearGradient id="d" x1="373.6" x2="455.91" y1="701.35" y2="701.35" gradientUnits="userSpaceOnUse"><stop offset="0" stop-color="#007093"/><stop offset=".2" stop-color="#006B8C"/><stop offset=".48" stop-color="#015E79"/><stop offset=".81" stop-color="#034859"/><stop offset=".89" stop-color="#034251"/></linearGradient><path fill="url(#d)" stroke="#000" stroke-miterlimit="10" d="M455.9 775.7h-61.53s-8.55-68.24-9.37-76.43c-.82-8.19-11.48-59.26-11.4-63.35s32.1-24 50.38 13.67 32.23 115.58 31.92 126.1z"/><linearGradient id="e" x1="148.37" x2="450.49" y1="825.08" y2="825.08" gradientUnits="userSpaceOnUse"><stop offset=".01" stop-color="#0AABBC"/><stop offset=".1" stop-color="#0695AD"/><stop offset=".2" stop-color="#0384A1"/><stop offset=".33" stop-color="#017999"/><stop offset=".51" stop-color="#007294"/><stop offset="1" stop-color="#007093"/></linearGradient><path fill="url(#e)" stroke="#000" stroke-miterlimit="10" d="M359.47 605.04s-116.57 20.54-159.89 2.4c0 0 12.9 24.76-32.43 67.07 0 0 33.97 15.42 43.37 90.1 9.58 76 15.14 123.11-24.15 174.5-39.29 51.37-38 106.01-38 106.01h200.54l16.7-18.8 24.78 18.8 60.09-19.37s-60.95-121.28-47.35-173.38c13.84-53.01 42.52-71.92 32.97-119.5-15.04-74.98-76.63-127.78-76.63-127.78z"/><path fill="#007093" stroke="#000" stroke-miterlimit="10" d="M98.83 786.26h97.53s19.04-82.85 20.34-93.97c1.3-11.13 4.27-68.9 4.14-74.46-.13-5.57-50.26-36.32-76.07 20.76-24.38 53.93-46.42 133.37-45.93 147.67z"/><path fill="#007093" d="M233.15 681.64c-14.06.47-28.02 1.85-42.11.76-8.92-.69-18.88-.55-25.33-7.3-6.3-6.59-10.24-11.78-8.5-21.39 1.67-9.3 5.55-15.42 12.6-21.81 10.5-9.52 22.27-19.55 37.18-20.12 6.58-.24 13.62 3.44 20.26 4.27 6.55.82 11.6 3.63 17.79 5.36 3.2.9 6.85-.14 10.14.47 7.51 1.4 16.38 3.32 23.4 6.3 13.03 5.56 14.37 18.14 13.7 30.7-1.37 26.05-42.39 22.2-59.13 22.75z"/><path fill="none" d="M112.11 517.61c-.02-.37-.2-.5-.56-.41"/><linearGradient id="f" x1="434.84" x2="464.32" y1="758.99" y2="758.99" gradientUnits="userSpaceOnUse"><stop offset="0" stop-color="#007093"/><stop offset=".38" stop-color="#025770"/><stop offset=".69" stop-color="#034859"/><stop offset=".89" stop-color="#034251"/></linearGradient><path fill="url(#f)" stroke="#000" stroke-miterlimit="10" d="M463 741.34s-25.46 5.29-24.89 8.75c1.64 9.85-3.27 25.6-3.27 25.6l29.47.94-1.32-35.3z"/><path fill="#055360" d="M406.56 912.45c-.32-2.43-2.13-3.47-3-5.57-.75-1.78-.33-3.76-.7-5.57-.68-3.35-2.94-3.84-4.1-6.3-1.7-3.57 3.04-7.18-2.9-8.5 1.18-4.59 1.05-4.25-3.7-4.53.22-2.74 4.63-5.45 6.48-7.7-3.36 1.54-8.62 3.32-12.45 2.86 3.5-2.63 8.4-4.23 10.69-8.39a45.3 45.3 0 0 1-13.28.97c5.04-2.95 10.75-4.98 15.07-9.53-6.42 3.58-12.53 2.81-19.8 2.95 3.18-1.2 6.63-.98 9.89-2.88 5.15-3 9.6-7.57 14.43-10.83-1.88 2.76-7.97 3.28-11.15 3.77-7.18 1.12-13.52-1.1-20.56-.83 5.77.56 11 2.83 16.91 1.13 3.32-.96 12.59-4.98 12.24-9.3" opacity=".2"/><path fill="#034251" d="M401.93 883.34c-3.14-26.88 12.53-61.62 11.94-60.75 0 0 9.88-20.31 11.21-24.98 0 0-.57.9-1.83 2.3a13.38 13.38 0 0 0 2.37-4.9s13.1-29.02 13.47-38.2c.71-17.44-4.76-32.26-9.81-48.78-5.99-19.56-11-30.75-22.4-46.93-6.26-8.88-5.62-12.36-14.06-19.4-2.1 1.29 8.94 23.04 13.4 33.53 7.09 16.69 19.31 30.08 22 48.33 2.21 15.1 4.75 29.66 1.85 44.62-1.38 7.12-6.58 18.25-9.13 25.06-16.26 43.37-52.67 48.38-96.96 30.7-6.43-2.56 25.43 3.5 34.84 6.87 4.03 1.45 8.51 1.49 12.42 2.82 5.3 1.82 6.62 8.98 7.53 13.73 1.3 6.79 2.62 13.02 4.55 19.67 1.58 5.44 2.54 11.12 3.82 16.65 1.16 5 2.72 10.21 2.58 15.39-.14 5.08-1.17 10.16-1.12 15.31.13 13.04 10.37 23.96 11.38 36.96.87 11.19 3.52 30.87 5.04 42 3.34 24.4-19.31 46.03-14.62 51.77 2.19 2.67 17.42-6.02 21.02-6.77 28.74-5.94 39.07-12.6 39.07-12.6s-42.77-92.84-48.55-142.36z" opacity=".2"/><path fill="none" d="M437.61 556.54c-.41.41-.41.41 0 0"/><linearGradient id="g" x1="299.34" x2="299.34" y1="445.11" y2="692.28" gradientUnits="userSpaceOnUse"><stop offset=".03" stop-color="#E7AB8B"/><stop offset=".26" stop-color="#EDBA9C"/><stop offset=".59" stop-color="#F7D5BC"/><stop offset=".83" stop-color="#ECB99B"/><stop offset=".98" stop-color="#E7AB8B"/></linearGradient><path fill="url(#g)" stroke="#0B0B0B" stroke-miterlimit="10" d="M332.12 492.36s7.34 81.25 26.57 107.04c19.23 25.79 3.18 88.14-18.86 91.5-91.94 14-108.43-82.67-108.43-82.67l7.84-27.72s4.26-15.25 7.64-36.63c2.37-15.02 4.31-33.06 4.03-50.97-.17-10.74-1.14-21.44-3.29-31.4-10.84-50.2 84.5 30.84 84.5 30.84z"/><path fill="#412683" d="M348.9 728.48l-97.55-78.29c5.96 3.5 85.6 45.34 111.91-4.22l-14.36 82.5z"/><path fill="#034251" d="M276.8 695.41l63.88 28.15 20.44 295.9v12.76l-11.45 12.9H213.1l47.47-11.69 59.75-4.2 28.48-19.73c0-.1 15.15-219.17-72-314.19z" opacity=".2"/><path fill="#0AABBC" d="M330.88 731.6c-9.2-6.67-1.53-3.77 6.28-4.54 6.74-.66 13.3-6.2 12.5 2.62-1.72 19.04 15.6 266.69 22.86 292.1 1.63 5.7-13.44 3.98-13.44 3.98s-11.05-281.78-28.2-294.2z"/><path fill="#fff" d="M227.76 840.15c9.94 27.82 9.53 64.95-3.65 91.77-19.63 39.9-33 67.5-42.42 110.7 0 0 33.53 2.79 33.88.08 4.51-35.35 20.92-67.85 27.8-102.71 6.22-31.58-14.57-98.29-15.62-99.84z" opacity=".2"/><path fill="#fff" d="M105.32 763.69l75.67 12 35.9-139.3s-35.67-62.58-64.77 0c-29.09 62.59-46.8 127.3-46.8 127.3z" opacity=".1"/><linearGradient id="h" x1="165.39" x2="340.67" y1="640.97" y2="640.97" gradientUnits="userSpaceOnUse"><stop offset="0" stop-color="#0AABBC"/><stop offset=".09" stop-color="#0797AE"/><stop offset=".2" stop-color="#0485A2"/><stop offset=".34" stop-color="#027999"/><stop offset=".53" stop-color="#007294"/><stop offset="1" stop-color="#007093"/></linearGradient><path fill="url(#h)" stroke="#000" stroke-miterlimit="10" d="M244.31 558.39s-40.45 13.72-78.92 74.09c0 0 40.1 15.53 53.88 29.07 13.8 13.53 100.63 56.86 121.4 62.01 0 0-97.56-111.02-102.49-143.49l6.13-21.68z"/><path fill="#034251" d="M325.5 707.99c-5.21 5.8-89.84-86.1-143.55-80.99 4.03-12.93 49.67-45.55 56.23-46.93-13.64 10.93 79.3 115.83 87.32 127.92z" opacity=".2"/><linearGradient id="i" x1="303.31" x2="303.31" y1="629.36" y2="195.71" gradientUnits="userSpaceOnUse"><stop offset=".03" stop-color="#4A331A"/><stop offset="1" stop-color="#4A3327"/></linearGradient><path fill="url(#i)" d="M481.54 626.03s-54.7-107.63-148.68-101.95c-39.21 2.37-61.1-5.8-79.83-2.62-26.16 4.44-40.5 22.1-37.23 42.9 5.6 35.69 23.2 65 23.2 65s-87.25-52.87-108.64-120.97c-21.38-68.1-52.38-199.53-15.4-246.07 36.98-46.54 209.72-87.88 257.19-54.46 47.47 33.4 105.69 98.74 117.64 141.29 11.96 42.53 40.1 201.93-8.24 276.88z"/><path fill="#2B1E10" d="M479.81 361.14l-.19.69c-.12.46-.35 1.13-.42 2.03-.15.9-.14 2.03-.15 3.35l.14 2.13c.07.75.2 1.55.3 2.4.5 3.36 1.42 7.4 2.68 11.99 1.24 4.58 2.88 9.69 4.32 15.37.16.72.35 1.43.48 2.18l.38 2.23.79 4.58.8 4.74.54 4.93c.36 3.34.8 6.77.97 10.29l.34 5.32c.13 1.8.24 3.6.29 5.44l.88 22.53 1.18 23.25c.39 7.79.69 15.59.83 23.27 0 3.85.11 7.66 0 11.43l-.17 5.61c-.08 1.86-.06 3.71-.24 5.54l-.41 5.43-.2 2.68-.11 1.33c-.05.48-.12.89-.19 1.33l-.75 5.17-.19 1.27-.29 1.25-.57 2.49c-1.44 6.6-3.62 12.58-5.62 18.09-2.17 5.48-4.9 10.13-7.22 14.28a154.99 154.99 0 0 0-5.74 10.86 44.35 44.35 0 0 0-2.74 7.4c-.26.88-.34 1.58-.45 2.03l-.15.7-.1-.01.13-.7c.1-.47.17-1.17.41-2.06.4-1.79 1.23-4.35 2.59-7.5 1.34-3.15 3.28-6.83 5.58-10.99 2.26-4.17 4.93-8.84 7-14.27 1.93-5.5 4.04-11.5 5.38-18.02l.54-2.46.27-1.24.18-1.27.76-5.16.18-1.3.1-1.32.2-2.66.42-5.41c.18-1.82.16-3.66.24-5.51l.17-5.6c.1-3.76.02-7.56.04-11.4-.08-7.67-.34-15.46-.68-23.25l-1.06-23.26-.78-22.53a133.54 133.54 0 0 0-.26-5.43l-.32-5.32c-.14-3.52-.58-6.93-.9-10.26l-.5-4.92-.78-4.75-.76-4.58-.36-2.23c-.13-.73-.32-1.45-.47-2.16-1.4-5.67-3-10.8-4.21-15.4a102.38 102.38 0 0 1-2.62-12.03c-.1-.85-.22-1.65-.28-2.4l-.13-2.14c.02-1.33.02-2.46.18-3.37.07-.92.3-1.59.43-2.04l.2-.7.12.03z"/><path fill="#2B1E10" d="M452.51 310.71l3.8 11.51 2.01 6.07c.4 1.1.72 2.26 1.04 3.48l1.04 3.76 2.27 8.26 1.23 4.47c.4 1.53.72 3.12 1.1 4.73l2.27 10.07c.38 1.74.82 3.5 1.18 5.31l1.02 5.51 2.11 11.48c.73 3.91 1.31 7.93 2 12.01l4.09 25.17a30911.44 30911.44 0 0 0 3.16 19.45l.53 3.27.46 3.28c1.23 8.78 1.14 17.68.56 26.35-.58 8.7-1.84 17.16-3.06 25.34-1.25 8.18-2.49 16.07-3.46 23.58-.98 7.5-1.55 14.65-2.42 21.22a124.25 124.25 0 0 1-3.39 17.76 55.6 55.6 0 0 1-5.18 12.94c-.43.87-.96 1.61-1.43 2.34-.49.7-.88 1.42-1.36 2-.96 1.16-1.7 2.2-2.44 2.94l-2.24 2.24-.07-.07 2.2-2.28c.7-.74 1.42-1.8 2.36-2.97.46-.59.84-1.3 1.3-2.02.46-.73.97-1.48 1.38-2.35a58.84 58.84 0 0 0 4.96-12.91c1.4-5.18 2.42-11.15 3.19-17.71.8-6.56 1.3-13.7 2.2-21.25.87-7.54 2.19-15.43 3.42-23.6a340.36 340.36 0 0 0 3.1-25.26c.62-8.63.76-17.47-.42-26.18l-.44-3.28-.52-3.25-1.03-6.52-2.04-12.95-3.98-25.18c-.67-4.08-1.24-8.11-1.95-12.02L469 373.97l-.98-5.51c-.35-1.8-.77-3.57-1.15-5.31l-2.22-10.08c-.36-1.61-.68-3.2-1.06-4.73l-1.2-4.48-2.23-8.26-1.01-3.76a47.42 47.42 0 0 0-1.02-3.48l-1.97-6.08-3.75-11.54h.12z"/><path fill="#2B1E10" d="M426.99 265.82l.1.9c.04.6.16 1.46.35 2.6a49.38 49.38 0 0 0 2.73 9.57c1.55 4.01 3.9 8.68 6.85 13.9 2.9 5.24 6.43 11.02 9.37 17.82 2.79 6.85 5 14.55 7.12 22.73a781.57 781.57 0 0 1 3.07 12.64c1 4.32 2.15 8.7 2.97 13.26 1.7 9.08 2.7 18.58 3.49 28.23.8 9.65 1.43 19.46 2.6 29.21 1.19 9.76 2.24 19.56 2.73 29.24.23 4.84.33 9.66.25 14.41a190.64 190.64 0 0 1-.84 14.05c-.51 4.6-1.15 9.1-2 13.47-.87 4.38-1.95 8.57-2.72 12.72-1.56 8.28-2.68 16.2-4.01 23.46-1.32 7.26-2.8 13.9-4.67 19.6-1.85 5.72-4.15 10.5-6.63 14.05a29.37 29.37 0 0 1-6.9 7.2 25.29 25.29 0 0 1-2.2 1.45l-.8.44-.04-.1.77-.44a24.96 24.96 0 0 0 2.18-1.47 29.16 29.16 0 0 0 6.7-7.28c2.38-3.56 4.6-8.32 6.4-14.01 1.81-5.7 3.23-12.3 4.47-19.57 1.26-7.25 2.3-15.18 3.8-23.51.73-4.18 1.8-8.41 2.66-12.73.86-4.34 1.5-8.81 2-13.38.44-4.57.73-9.24.84-13.97a248.14 248.14 0 0 0-.2-14.35 411.8 411.8 0 0 0-2.6-29.19c-1.12-9.78-1.7-19.6-2.48-29.25-.75-9.64-1.71-19.12-3.37-28.17-.8-4.53-1.92-8.93-2.91-13.25-1-4.32-2-8.55-3.02-12.64-2.06-8.18-4.25-15.9-6.98-22.72-2.9-6.77-6.4-12.58-9.27-17.83a111.8 111.8 0 0 1-6.78-13.96 49.38 49.38 0 0 1-2.7-9.61c-.18-1.14-.3-2.02-.34-2.61l-.09-.9.12-.03z"/><path fill="#2B1E10" d="M405.78 253.65l.43 3.42.24 1.87.13 1.08.22 1.16 1.04 5.5c.48 2.05.97 4.32 1.6 6.78.65 2.44 1.31 5.1 2.13 7.9 1.58 5.65 3.5 11.96 5.3 18.95a392.95 392.95 0 0 0 2.9 10.85l1.8 5.63 2 5.76c2.76 7.78 5.87 15.94 8.1 24.7.27 1.09.58 2.18.82 3.3l.63 3.36c.2 1.13.43 2.26.62 3.4l.44 3.44c.52 4.62.88 9.3 1.37 14a81.8 81.8 0 0 0 2.6 13.94c.37 1.14.71 2.27 1.1 3.4a125.02 125.02 0 0 1 3.27 10.33c2.51 9.3 3.97 18.88 4.52 28.35.57 9.47.22 18.82-.71 27.8a207.32 207.32 0 0 1-4.33 25.65 256.85 256.85 0 0 1-6.36 22.41 282.6 282.6 0 0 1-12.98 32.33 334.73 334.73 0 0 1-4.33 8.75l-1.16 2.29a6.5 6.5 0 0 0-.27.6l-.02.07c-.07-.07-.04-.02-.03-.05l.03-.03.08.07-.05.04a.12.12 0 0 1-.04.03h-.03c-.03 0-.07-.04-.06-.06a.4.4 0 0 1 .02-.11c.05-.15.14-.35.26-.61l1.12-2.32a304.47 304.47 0 0 0 16.77-41.23c2.2-6.84 4.32-14.35 6.12-22.4 1.78-8.03 3.35-16.6 4.27-25.53.93-8.93 1.26-18.24.76-27.65s-1.9-18.94-4.36-28.2a126.34 126.34 0 0 0-2.04-6.88c-.37-1.13-.76-2.26-1.16-3.4-.39-1.13-.73-2.3-1.1-3.44a82.57 82.57 0 0 1-2.58-14.08c-.47-4.72-.8-9.4-1.31-13.99l-.42-3.44c-.18-1.12-.4-2.25-.6-3.37l-.62-3.35c-.23-1.1-.54-2.2-.8-3.28-2.19-8.73-5.27-16.88-7.98-24.68l-1.98-5.78-1.78-5.66a397.23 397.23 0 0 1-2.84-10.87c-1.75-6.99-3.65-13.32-5.2-18.96-.8-2.82-1.45-5.48-2.1-7.93-.6-2.46-1.08-4.74-1.56-6.79l-1-5.52-.22-1.16-.13-1.08-.22-1.87a2823.41 2823.41 0 0 1-.42-3.43l.1-.05z"/><path fill="#2B1E10" d="M386.2 233.24a85.5 85.5 0 0 0 3.65 18.67c1.83 6.09 4.13 12.02 6.41 17.95 2.3 5.93 4.64 11.85 6.56 17.92 1.98 6.07 3.22 12.32 4.73 18.5l1.1 4.64 1.03 4.65 2.06 9.32 2.06 9.32c.68 3.1 1.28 6.23 1.92 9.35.57 3.13 1.16 6.26 1.68 9.4l.71 4.72c.25 1.57.48 3.15.64 4.73.37 3.16.79 6.32.97 9.5l.36 4.77.15 4.78c.02 1.59.15 3.18.1 4.78l-.1 4.78c-.04 3.19-.24 6.35-.35 9.53l-.64 19.07a995.91 995.91 0 0 1-.8 19.07c-.35 6.35-.78 12.7-1.4 19.04-.35 3.17-.63 6.34-1.12 9.49-.45 3.15-.85 6.31-1.46 9.44l-.84 4.7c-.3 1.57-.69 3.12-1.03 4.67l-1.06 4.66-1.28 4.6c-.46 1.53-.8 3.09-1.35 4.6l-1.55 4.51c-.94 3.05-2.32 5.93-3.51 8.89-.32.73-.59 1.48-.96 2.19l-1.08 2.12-2.18 4.25c-.35.72-.77 1.4-1.2 2.07l-1.25 2.04-2.5 4.06-.53.65-.26.32-.04.05-.01.01h-.02c0 .01-.08 0-.09-.05l.01-.04.02-.04.06-.08.13-.16 1.02-1.31.08.06-1 1.33-.12.16-.09.1V531c-.01-.05-.09-.06-.09-.05l-.03.02.03-.04.26-.32.5-.66 2.43-4.1 1.21-2.04c.41-.68.82-1.36 1.15-2.09l2.1-4.27 1.04-2.14c.36-.7.62-1.46.93-2.2 1.16-2.95 2.5-5.83 3.42-8.87l1.5-4.52c.52-1.5.85-3.05 1.3-4.58l1.23-4.6 1.01-4.64c.32-1.56.7-3.1.98-4.66l.8-4.7c.58-3.11.95-6.27 1.36-9.41.47-3.14.7-6.31 1.05-9.47.63-6.32 1.06-12.66 1.41-19 .34-6.34.58-12.7.81-19.05l.73-19.07c.13-3.17.34-6.36.4-9.52l.11-4.76c.07-1.58-.05-3.17-.06-4.75l-.13-4.76-.34-4.75c-.18-3.17-.58-6.32-.93-9.47a87.31 87.31 0 0 0-.62-4.72l-.7-4.72c-.5-3.13-1.08-6.26-1.63-9.38-.64-3.12-1.22-6.24-1.89-9.35l-2.02-9.32-2.02-9.32-1.02-4.66-1.07-4.64c-1.49-6.19-2.7-12.44-4.63-18.49-1.89-6.06-4.2-11.99-6.45-17.93-2.26-5.95-4.53-11.9-6.33-18a85.57 85.57 0 0 1-3.56-18.72l.1.02z"/><path fill="#2B1E10" d="M365.03 224.5l2.26 13.07 1.2 6.9c.43 2.5 1.02 5.19 1.6 8.07l3.9 19.36 2.26 11.07c.38 1.91.81 3.85 1.16 5.83l1.08 6.04 2.24 12.57c.73 4.3 1.3 8.7 1.97 13.18l1.99 13.63 1.79 14.01 1.78 14.24 1.63 14.36c1.12 9.59 2.12 19.19 3.12 28.64 1 9.44 2 18.74 2.82 27.75.85 9.01 1.4 17.77 1.38 26.08l-.07 6.15-.37 5.96c-.08.97-.1 1.94-.21 2.9l-.36 2.83-.7 5.51c-1.16 7.14-2.3 13.71-3.9 19.39-.68 2.88-1.75 5.45-2.68 7.81a138.39 138.39 0 0 1-2.83 6.4c-1.81 3.82-3.4 6.76-4.73 8.6a8.5 8.5 0 0 1-.97 1.15c-.31.3-.65.55-1 .48-.33-.1-.4-.38-.46-.5l-.06-.22.1-.03.06.21c.06.12.14.37.4.43.25.05.57-.17.87-.46.3-.3.61-.69.93-1.15 1.28-1.85 2.81-4.8 4.55-8.65a147.43 147.43 0 0 0 2.7-6.44c.91-2.37 1.95-4.91 2.6-7.77 1.53-5.67 2.61-12.2 3.69-19.36l.65-5.49.33-2.82c.1-.95.12-1.91.18-2.88l.32-5.93.01-6.12a305.16 305.16 0 0 0-1.42-25.99c-.82-9-1.83-18.3-2.77-27.75-.96-9.45-1.9-19.05-2.98-28.64l-1.57-14.37-1.73-14.23-1.73-14-1.93-13.65c-.66-4.48-1.21-8.9-1.92-13.18l-2.18-12.57-1.05-6.04c-.35-1.98-.77-3.92-1.13-5.84l-2.2-11.07-3.81-19.38c-.56-2.9-1.13-5.58-1.56-8.1l-1.16-6.89-2.2-13.09.14-.04zM120 296.5c-.53 3.32-1.15 6.62-1.6 9.95l-.63 5c-.1.83-.22 1.66-.3 2.5l-.22 2.5-.44 5.02c-.13 1.68-.18 3.36-.28 5.03-.06 1.68-.2 3.35-.2 5.03l-.08 5.04-.03 2.51.04 2.52.07 5.03c.13 3.36.28 6.71.47 10.06l1.48 20.1c.42 6.7.82 13.42 1.31 20.11l.37 5.03.5 5c.36 3.35.55 6.68 1.15 10l.76 4.97 1.08 4.9.54 2.44c.2.82.45 1.62.68 2.42l1.38 4.83a254.75 254.75 0 0 0 7.02 18.85l3.8 9.33 3.7 9.38c2.44 6.26 4.93 12.5 7.57 18.67 1.33 3.08 2.61 6.18 4.04 9.22 1.4 3.05 2.76 6.12 4.28 9.11 1.48 3.01 2.94 6.04 4.56 8.97l2.37 4.44c.8 1.48 1.68 2.9 2.52 4.36l2.54 4.34c.87 1.44 1.81 2.82 2.72 4.24l2.73 4.22a120.05 120.05 0 0 0 2.95 4.07c4.11 5.27 8.84 10.07 13.74 14.65s9.96 9.02 14.83 13.65c4.85 4.65 9.48 9.57 13.4 15.03l.06.07-.08-.03-.5-.2c-.15-.08-.31-.16-.46-.26-.14-.11-.3-.2-.42-.34-.11-.13-.25-.25-.34-.4a3.86 3.86 0 0 1-.5-.94c-.05-.17-.12-.33-.15-.5l-.11-.53.11.52c.04.17.11.34.16.5.13.34.3.65.5.94.1.15.24.26.36.4.12.12.27.21.4.32.16.1.32.17.47.26l.5.18-.03.04c-4-5.41-8.68-10.26-13.57-14.84-4.92-4.58-10.04-8.93-14.98-13.5a128.46 128.46 0 0 1-13.86-14.67c-1.04-1.33-2-2.69-2.99-4.07l-2.76-4.23c-.9-1.41-1.86-2.8-2.74-4.24l-2.57-4.34c-.84-1.45-1.74-2.88-2.54-4.36l-2.4-4.44c-1.63-2.94-3.1-5.96-4.6-8.97-1.54-3-2.92-6.06-4.33-9.12-1.44-3.03-2.74-6.14-4.09-9.22a619.01 619.01 0 0 1-7.64-18.66l-3.74-9.35-3.82-9.33a256.43 256.43 0 0 1-6.98-18.95l-1.36-4.87c-.23-.8-.48-1.61-.67-2.43l-.54-2.48-1.07-4.95-.74-4.98c-.58-3.31-.77-6.7-1.12-10.04l-.48-5.02-.34-5.03c-.47-6.71-.84-13.42-1.23-20.12l-1.4-20.11a491.09 491.09 0 0 1-.42-10.08l-.06-5.05-.03-2.52.05-2.52.14-5.04c.02-1.68.18-3.36.27-5.04.11-1.67.18-3.35.33-5.03l.5-5.02.25-2.5c.1-.84.23-1.67.34-2.5l.69-5c.59-3.36 1.25-6.66 1.8-9.97z"/><path fill="#2B1E10" d="M124.7 279.82l.43 3.37c.13 1.1.35 2.44.5 4.04l.5 5.5.43 6.83c.09 2.48.22 5.18.27 8.05.12 5.76.08 12.26-.08 19.34-.15 7.08-.4 14.75-.5 22.86-.09 8.1-.03 16.66.58 25.47l.24 3.32c.09 1.11.23 2.22.34 3.34.22 2.23.47 4.47.78 6.73.6 4.52 1.18 9.1 1.92 13.67a292.87 292.87 0 0 0 5.44 27.58l1.87 6.81c.33 1.13.58 2.29.98 3.4l1.11 3.33c.76 2.22 1.46 4.46 2.26 6.65a16859.86 16859.86 0 0 0 3.9 9.7l1.48 3.11 2.95 6.2c.47 1.03 1.02 2 1.57 3l1.62 2.97c1.04 2 2.22 3.88 3.35 5.77A271.33 271.33 0 0 0 170.88 502c4.81 6.53 9.5 12.6 13.84 18.2 4.35 5.58 8.13 10.87 11.54 15.5 1.75 2.29 3.33 4.47 4.92 6.38l2.25 2.78 2.16 2.44c1.33 1.58 2.67 2.85 3.8 3.98l1.58 1.56 1.42 1.2 2.59 2.19-2.62-2.16-1.43-1.18-1.6-1.54c-1.15-1.12-2.51-2.38-3.87-3.94l-2.2-2.42-2.28-2.75c-1.62-1.9-3.23-4.06-5.01-6.32-3.48-4.59-7.32-9.82-11.68-15.4a930.91 930.91 0 0 1-13.92-18.14 271.83 271.83 0 0 1-14.38-21.12c-1.15-1.9-2.34-3.8-3.4-5.78l-1.63-2.97c-.54-.98-1.11-1.98-1.58-3.02l-3-6.2-1.5-3.13a9768.18 9768.18 0 0 1-3.96-9.72c-.82-2.2-1.53-4.45-2.3-6.67l-1.14-3.36c-.4-1.1-.66-2.26-1-3.4l-1.9-6.83a293.1 293.1 0 0 1-5.34-27.7c-.72-4.6-1.28-9.18-1.85-13.7a167.81 167.81 0 0 1-.76-6.76c-.1-1.12-.24-2.23-.32-3.35l-.23-3.33c-.57-8.85-.6-17.42-.47-25.54.14-8.11.42-15.78.6-22.86.17-7.08.3-13.56.26-19.31-.02-2.88-.1-5.57-.16-8.06l-.35-6.83-.43-5.5c-.13-1.59-.33-2.94-.44-4.04l-.38-3.4z"/><path fill="#2B1E10" d="M138.26 271.75l-.14 3.24-.17 3.9a127.36 127.36 0 0 0-.16 5.26l-.11 6.54c-.02 2.37.02 4.95.03 7.7-.01 2.74.1 5.67.19 8.75l.13 4.74.24 4.96.24 5.17.37 5.36c.14 1.82.24 3.67.4 5.55l.51 5.7c.68 7.73 1.67 15.84 2.79 24.22a552.4 552.4 0 0 0 9.92 52.02c1.09 4.37 2.14 8.76 3.34 13.08 1.13 4.36 2.37 8.64 3.83 12.82 2.9 8.38 6.39 16.4 9.93 24.07a633.43 633.43 0 0 0 5.37 11.24c1.78 3.66 3.52 7.24 5.35 10.65a286.92 286.92 0 0 0 10.95 18.88c3.63 5.71 7.15 10.82 10.44 15.21 3.3 4.4 6.4 8.05 9.11 10.92a70.88 70.88 0 0 0 6.68 6.26 35.6 35.6 0 0 0 1.91 1.47l.67.5-.67-.49a35.59 35.59 0 0 1-1.94-1.45 70.9 70.9 0 0 1-6.77-6.17c-2.75-2.84-5.91-6.46-9.28-10.81a203.47 203.47 0 0 1-10.6-15.15 286.65 286.65 0 0 1-11.07-18.87c-1.85-3.41-3.62-7-5.42-10.64a640.16 640.16 0 0 1-5.42-11.23 262.29 262.29 0 0 1-10.07-24.1 160.9 160.9 0 0 1-3.9-12.86 417.65 417.65 0 0 1-3.4-13.1 510.26 510.26 0 0 1-5.57-26.37 555.42 555.42 0 0 1-4.14-25.78 552 552 0 0 1-2.67-24.26l-.49-5.72c-.15-1.87-.25-3.73-.37-5.55l-.34-5.37-.23-5.18-.21-4.97-.1-4.74c-.05-3.09-.11-6.01-.07-8.76.03-2.76.02-5.33.07-7.71l.2-6.54c.05-1.98.14-3.73.23-5.27l.23-3.89.19-3.24z"/><path fill="#2B1E10" d="M156.63 252.71l.15.83c.1.54.26 1.35.38 2.42.28 2.13.47 5.29.33 9.3-.1 4.02-.62 8.87-.9 14.44-.4 5.57.23 11.85.9 18.68a516.9 516.9 0 0 0 2.8 22.01c1.1 7.8 2.31 16.02 3.36 24.55 1.04 8.53 2.14 17.34 3.4 26.27a468.79 468.79 0 0 0 4.57 26.94 334.4 334.4 0 0 0 6.61 26.5c1.31 4.3 2.52 8.61 3.91 12.8l2.02 6.27 2.13 6.13c1.36 4.08 2.93 8 4.35 11.88a609.41 609.41 0 0 0 4.53 11.23c3.1 7.23 6.2 14 9.3 20.13 3.18 6.07 6.56 11.4 9.5 16.14 2.96 4.74 5.49 8.9 7.4 12.43a111.64 111.64 0 0 1 4.12 8.36l1.26 3.04-1.3-3.03a111.74 111.74 0 0 0-4.23-8.28c-1.96-3.5-4.55-7.62-7.58-12.31-3.02-4.7-6.44-10-9.67-16.1a353.68 353.68 0 0 1-9.4-20.12 623.12 623.12 0 0 1-4.6-11.23c-1.43-3.88-3.02-7.8-4.4-11.88l-2.16-6.13-2.05-6.27c-1.42-4.2-2.64-8.5-3.98-12.82-2.5-8.66-4.95-17.54-6.73-26.54a468.3 468.3 0 0 1-4.46-27.02c-1.22-8.94-2.29-17.76-3.28-26.3-1-8.53-2.18-16.74-3.26-24.55-1.09-7.8-2.05-15.2-2.7-22.04-.36-3.43-.58-6.71-.79-9.84-.2-3.15-.1-6.13.07-8.92.36-5.58.93-10.42 1.1-14.42.19-4 .03-7.16-.22-9.3-.1-1.06-.25-1.87-.34-2.42l-.16-.85zm20.22-3.77l.38.73c.26.47.59 1.2.99 2.17a36.17 36.17 0 0 1 2.12 8.81c.5 3.89.6 8.66.4 14.1-.17 5.45-.67 11.58-.86 18.26a65.7 65.7 0 0 0 .46 10.39c.47 3.58 1.25 7.2 2.25 10.9 1.98 7.4 4.87 15 7 23.12 2.08 8.15 3.38 16.75 4.55 25.46.6 4.36 1.18 8.75 1.86 13.14.34 2.2.71 4.39 1.1 6.58l1.24 6.58c.82 4.4 1.72 8.76 2.58 13.12.93 4.35 1.8 8.7 2.78 12.98a1235.64 1235.64 0 0 0 11.87 48.52 232.8 232.8 0 0 0 6.81 20.5c2.36 6.27 4.58 12 6.37 17.15 1.81 5.14 3.2 9.68 4.23 13.46.5 1.89.95 3.58 1.26 5.06.34 1.48.64 2.74.82 3.77l.6 3.16-.65-3.15c-.2-1.03-.5-2.28-.86-3.76-.34-1.48-.82-3.15-1.34-5.04a196.4 196.4 0 0 0-4.42-13.37c-1.88-5.1-4.15-10.81-6.52-17.08a233.26 233.26 0 0 1-6.93-20.52 1231.44 1231.44 0 0 1-12.11-48.5c-1-4.29-1.89-8.64-2.85-12.98-.86-4.37-1.83-8.74-2.61-13.14l-1.2-6.59c-.39-2.2-.75-4.4-1.09-6.61-.65-4.4-1.22-8.8-1.8-13.17-1.13-8.72-2.38-17.27-4.4-25.38-2.09-8.09-4.94-15.69-6.9-23.14a85.86 85.86 0 0 1-2.22-11 66.3 66.3 0 0 1-.41-10.47c.2-6.71.8-12.83 1.05-18.26.27-5.43.22-10.19-.22-14.07a36.13 36.13 0 0 0-2-8.8c-.39-.98-.7-1.72-.96-2.2-.2-.47-.33-.72-.33-.72zm166.52-4.4l1.43 12.05 3.73 31.78 2.42 21.23 2.62 23.72 5.6 51.54c.23 2.2.49 4.38.67 6.6l.54 6.58.52 6.56c.08 1.1.2 2.18.24 3.27l.12 3.27.47 12.92.05 12.6c.05 4.15-.05 8.22-.12 12.2l-.1 5.9c-.04 1.95-.07 3.88-.18 5.77l-.25 5.6-.44 5.44c-.24 3.57-.7 6.99-1.06 10.28-.4 3.3-.85 6.43-1.27 9.43l-.76 4.34c-.13.7-.23 1.4-.39 2.08l-.46 2-.9 3.8c-.33 1.21-.7 2.37-1.04 3.49-.35 1.1-.63 2.2-1 3.2l-1.12 2.83c-1.22 3.7-3.05 6.2-3.95 8.04a8.22 8.22 0 0 0-.86 2.19c-.1.54.12.78.1.78.02 0-.2-.24-.1-.78a8.2 8.2 0 0 1 .83-2.2c.88-1.88 2.65-4.39 3.83-8.09l1.07-2.85c.35-1 .62-2.08.96-3.2.31-1.12.67-2.27 1-3.48l.82-3.8.44-2c.15-.68.23-1.38.36-2.08l.7-4.35c.38-2.98.83-6.13 1.2-9.41.34-3.29.8-6.7 1.02-10.26l.4-5.42.23-5.6c.1-1.9.12-3.8.14-5.76l.08-5.9c.05-3.98.13-8.05.06-12.18l-.1-12.6-.53-12.87-.14-3.26c-.04-1.09-.17-2.17-.25-3.26l-.56-6.56-.56-6.58c-.2-2.17-.47-4.38-.7-6.57a805754.47 805754.47 0 0 0-5.36-51.57l-2.5-23.72-2.32-21.25-3.37-31.82-1.28-12.09zm18.89 17.63l.48 3 .59 3.62 1.03 4.84c.8 3.62 1.92 7.99 3.26 12.98l2.13 7.95 1.08 4.33.55 2.24.5 2.31c.31 1.56.7 3.14.98 4.78l.83 5c.49 3.4.83 6.92 1.28 10.54.2 1.81.44 3.64.63 5.5l.54 5.65 1.1 11.67 1.14 12.05 1.34 12.32c1.01 8.28 2.21 16.67 3.36 25.08.58 4.2 1.07 8.41 1.6 12.6.25 2.1.44 4.2.66 6.3.21 2.1.46 4.18.6 6.26l.46 6.23c.17 2.06.18 4.13.28 6.17.23 4.1.14 8.15.11 12.13-.19 7.95-.57 15.64-1.28 22.9l-.54 5.37c-.2 1.77-.52 3.49-.76 5.19l-.77 5c-.28 1.62-.55 3.23-.78 4.8-.92 6.28-1.8 12.08-3.29 17.05-.42 1.23-.79 2.43-1.23 3.56a20.59 20.59 0 0 1-1.8 3.02c-1.28 1.84-2.56 3.45-3.7 4.92-2.27 2.92-4.06 5.23-5.05 6.96-.5.85-.8 1.56-.87 2.07-.08.52.12.76.1.76.02 0-.18-.24-.1-.76.05-.51.35-1.23.83-2.1.97-1.74 2.72-4.08 4.97-7.04 1.11-1.48 2.36-3.1 3.6-4.96a20.5 20.5 0 0 0 1.73-2.99c.43-1.12.78-2.32 1.18-3.54 1.4-4.97 2.19-10.74 3.1-17.04.22-1.58.48-3.18.76-4.8l.74-5c.24-1.7.54-3.41.73-5.17l.52-5.35c.66-7.24 1.01-14.93 1.16-22.87 0-3.96.08-8-.17-12.07-.1-2.04-.14-4.1-.31-6.16l-.5-6.2c-.14-2.08-.4-4.16-.62-6.25-.23-2.08-.43-4.18-.7-6.27-.54-4.19-1.05-8.4-1.64-12.6-1.11-8.4-2.27-16.8-3.24-25.1l-1.28-12.34-1.08-12.07-1.05-11.65-.5-5.65c-.19-1.86-.41-3.7-.61-5.5-.43-3.62-.76-7.16-1.23-10.54l-.8-4.98c-.27-1.63-.65-3.2-.96-4.76-1.32-6.22-2.82-11.85-4.07-16.86-1.28-5.01-2.34-9.4-3.08-13.03l-.96-4.86-.54-3.62-.43-3z"/><path fill="#2B1E10" d="M390.33 276.88l1.17 2.69c.28.91.7 2.03 1.04 3.37.34 1.35.73 2.9 1.04 4.66.7 3.5 1.23 7.82 2.2 12.69 1.03 4.86 2.42 10.3 3.57 16.32.65 3 1.05 6.17 1.54 9.44l.45 5.01c.12 1.7.18 3.44.28 5.2.26 7.02.09 14.42.37 22.06.11 1.9.2 3.83.34 5.76.2 1.93.35 3.87.6 5.82l1.58 11.84c.53 3.98 1.11 7.99 1.6 12.03l.75 6.06c.25 2.03.41 4.06.62 6.1.2 2.03.43 4.05.58 6.1l.35 6.1.18 3.04c.05 1.02.05 2.03.07 3.05l.11 6.06c.07 2.02-.05 4.02-.07 6.01l-.13 5.95c-.27 3.94-.46 7.83-.78 11.65l-.59 5.67c-.2 1.87-.35 3.73-.65 5.56l-.77 5.41a82.52 82.52 0 0 1-.88 5.27l-.97 5.1a78.16 78.16 0 0 1-1.04 4.94l-1.12 4.74c-.38 1.54-.68 3.1-1.14 4.56l-1.25 4.32c-.4 1.4-.92 2.75-1.36 4.08-.47 1.32-.86 2.63-1.37 3.85l-1.43 3.58c-1.9 4.6-3.8 8.53-5.54 11.65-1.64 3.17-3.11 5.57-4.07 7.22a69.43 69.43 0 0 1-1.14 1.87c-.15.21-.21.35-.36.47-.1 0-.07-.07-.08-.07l.01-.03.01-.04a.69.69 0 0 0 .02-.06l.02-.04.1.04-.02.04-.02.05-.01.04c-.03 0 .05.03-.06-.03a69.24 69.24 0 0 0 1.38-2.32c.93-1.67 2.34-4.1 3.92-7.3 1.65-3.17 3.48-7.08 5.33-11.7l1.4-3.57c.48-1.23.85-2.53 1.31-3.84.42-1.33.93-2.66 1.3-4.08l1.2-4.33c.45-1.47.72-2.98 1.09-4.54l1.06-4.74c.4-1.6.69-3.25.98-4.92l.92-5.1c.34-1.72.58-3.48.82-5.26l.77-5.4c.3-1.8.45-3.66.65-5.53l.58-5.64c.33-3.8.52-7.69.78-11.61.07-3.93.27-7.9.26-11.91l-.08-6.04c-.02-1 0-2.01-.05-3.03l-.16-3.04-.32-6.1c-.13-2.01-.36-4.05-.53-6.08-.2-2.03-.36-4.06-.6-6.08l-.73-6.06c-.46-4.04-1.02-8.05-1.54-12.04l-1.52-11.84c-.24-1.96-.38-3.92-.58-5.86-.14-1.94-.2-3.87-.31-5.78-.25-7.67-.05-15.07-.27-22.07-.08-1.75-.13-3.47-.23-5.17l-.43-5c-.47-3.27-.84-6.43-1.47-9.43-1.12-6.01-2.48-11.46-3.47-16.34-.95-4.89-1.46-9.2-2.13-12.7-.3-1.76-.68-3.3-1-4.66-.34-1.34-.75-2.44-1.02-3.36l-1.15-2.7.09-.03zm40.47 80.85l.29 2.1c.2 1.36.48 3.36.75 5.92.15 1.28.31 2.7.44 4.24.13 1.55.3 3.22.4 5.01.1 1.8.24 3.7.28 5.7l.1 3.1v3.24c.05 2.21-.1 4.5-.16 6.89a10777.2 10777.2 0 0 0-1.08 15.1l-.28 4.02-.18 4.1c-.24 5.5-.5 11.19-.83 16.98-.2 5.79-.94 11.64-1.47 17.5l-1.99 17.45c-.31 2.88-.69 5.73-1.05 8.55l-.64 4.19a79.38 79.38 0 0 1-.7 4.12l-.77 4.04c-.28 1.33-.61 2.63-.91 3.93-.55 2.61-1.39 5.09-2.13 7.52l-.28.9c-.1.34-.22.6-.34.9l-.68 1.72-.67 1.7-.34.84-.4.81c-1.06 2.15-2 4.27-3.15 6.17l-1.6 2.83-1.64 2.63-1.56 2.49-1.56 2.3c-1.98 3-3.86 5.5-5.39 7.57l-4.86 6.46-.08-.06 4.66-6.6c.75-1.05 1.54-2.23 2.42-3.51a121.13 121.13 0 0 0 2.8-4.16l1.51-2.32 1.53-2.5 1.59-2.65 1.54-2.83c1.1-1.9 2-4 3.02-6.13l.38-.8.32-.85.65-1.7.65-1.74c.1-.28.24-.6.32-.86l.26-.9c.68-2.43 1.5-4.88 2.05-7.46.3-1.3.64-2.59.92-3.9l.76-4.02c.27-1.35.49-2.72.7-4.1l.63-4.17c.36-2.81.77-5.65 1.1-8.52l2.13-17.43c.57-5.84 1.35-11.67 1.58-17.45.36-5.78.67-11.47.94-16.98l.2-4.1.31-4.01.6-7.75.6-7.34c.08-2.37.25-4.67.22-6.87l.03-3.23-.07-3.1c-.03-2-.15-3.9-.24-5.7-.08-1.78-.24-3.45-.36-5a111.63 111.63 0 0 0-.4-4.24c-.25-2.56-.52-4.56-.7-5.93l-.27-2.1h.11zm38.76 66.71l1.1 6.54c.35 2.07.76 4.6 1.2 7.5.43 2.91.88 6.2 1.22 9.8.16 1.8.34 3.68.41 5.63.14 1.95.14 3.97.15 6.05-.02 4.14-.28 8.52-.7 13.02-.82 9.02-2.4 18.55-4.11 28.03l-2.53 14.16a275.2 275.2 0 0 1-2.76 13.68 200.35 200.35 0 0 1-3.3 12.63 144.12 144.12 0 0 1-3.89 11.04c-.68 1.68-1.34 3.28-2.03 4.79a21.82 21.82 0 0 1-2.24 4.16c-1.75 2.45-3.85 4.02-5.4 5.42-1.56 1.4-2.59 2.7-3.18 3.64-.32.47-.5.86-.65 1.11l-.21.39-.09-.04.2-.4c.13-.26.3-.67.6-1.15.56-.99 1.55-2.35 3.07-3.83 1.49-1.5 3.55-3.08 5.17-5.48a21.76 21.76 0 0 0 2.1-4.1c.65-1.5 1.28-3.11 1.93-4.8a143.37 143.37 0 0 0 3.66-11.04c1.19-3.95 2.28-8.17 3.29-12.57a393.05 393.05 0 0 0 2.82-13.61l2.67-14.14c1.78-9.47 3.42-18.96 4.32-27.94.45-4.5.73-8.84.8-12.98.01-2.07.03-4.08-.08-6.02-.06-1.94-.22-3.82-.36-5.62-.3-3.6-.72-6.88-1.12-9.79a459.09 459.09 0 0 0-1.12-7.52l-1.04-6.54h.11zm-21.79-55.72l2.5 7.99c.82 2.54 1.61 5.68 2.63 9.25l.38 1.37.32 1.42.66 2.97.7 3.13c.25 1.06.5 2.15.66 3.29l1.12 7.04c.22 1.22.34 2.47.47 3.73l.39 3.85c.37 5.24.62 10.76.6 16.48.02 5.71-.1 11.61-.18 17.6-.06 3 0 6-.1 9.07-.12 3.03-.1 6.07-.45 9.12l-.41 4.57c-.2 1.51-.44 3.02-.66 4.52-.38 3.02-1.04 5.98-1.63 8.93-.27 1.48-.65 2.93-1.01 4.37l-1.1 4.31c-.82 2.83-1.61 5.63-2.48 8.36a378.1 378.1 0 0 1-5.37 15.58c-1.8 4.91-3.54 9.56-5.31 13.78a113.8 113.8 0 0 1-5.39 11.27 66.66 66.66 0 0 1-5.23 8.1 53.3 53.3 0 0 1-4.06 4.68l-1.56 1.54-.06-.07 1.5-1.58a53.05 53.05 0 0 0 3.9-4.78 78.86 78.86 0 0 0 5.03-8.15c1.75-3.26 3.5-7.06 5.2-11.3 1.7-4.22 3.35-8.87 5.09-13.81l2.66-7.6c.93-2.58 1.75-5.26 2.66-7.96.85-2.72 1.64-5.5 2.47-8.32l1.1-4.28c.37-1.44.76-2.87 1.04-4.34.6-2.93 1.29-5.87 1.69-8.87.23-1.49.48-2.98.69-4.49l.44-4.52c.38-3 .36-6.07.5-9.1.12-3 .09-6.05.17-9.04.11-6 .27-11.9.28-17.6.05-5.7-.17-11.21-.5-16.42l-.35-3.86a45.4 45.4 0 0 0-.44-3.72l-1.06-7.04c-.14-1.13-.39-2.22-.62-3.29l-.68-3.12-.64-2.97-.3-1.43-.37-1.36c-.99-3.58-1.76-6.72-2.55-9.27l-2.44-8 .1-.04zm48.34 48.84c-.42 16.45 1.68 32.79 3.19 49.14.37 4.09.7 8.19.95 12.29.14 2.05.2 4.1.3 6.16.04 2.06.13 4.11.12 6.17 0 4.12-.08 8.21-.1 12.32-.05 4.11-.1 8.22-.22 12.33-.27 8.21-.87 16.46-2.46 24.56-.81 4.07-1.89 8-2.56 12.04-.72 4.03-1.25 8.1-1.72 12.17-.93 8.13-1.8 16.41-4.44 24.27a49.08 49.08 0 0 1-5.4 11.13 53.97 53.97 0 0 1-7.94 9.44l-.16-.16.21-.18.04-.02c-.01-.03.15-.03.17.03.02.03.01.06 0 .1-.04.08-.04.06-.06.09l-.1.1-.37.38-.77.75-.77.73-.4.36-.1.09c-.04.02-.01.02-.1.05-.02 0-.03 0-.05-.03-.02-.04.01-.08 0-.07l.03-.03.18-.2.07.06-.16.2c-.15-.06 0-.08.05-.15l.38-.37.76-.76.74-.77.36-.38.08-.1s.04-.06.02-.02c0 .03 0 .04.02.07 0 .07.15.07.14.05l-.02.02-.2.17-.15-.17a59.17 59.17 0 0 0 7.66-9.56 48.5 48.5 0 0 0 5.15-11.07 73.63 73.63 0 0 0 2.65-11.95c.58-4.05 1-8.13 1.49-12.22.47-4.08 1-8.16 1.73-12.22.67-4.08 1.8-8.06 2.62-12.05 1.64-8.02 2.3-16.21 2.61-24.4.16-4.1.23-8.2.29-12.31.05-4.11.16-8.22.18-12.32.02-2.05-.06-4.1-.09-6.15-.09-2.05-.13-4.1-.27-6.15-.2-4.1-.53-8.19-.87-12.28-.69-8.18-1.52-16.36-2.13-24.55-.29-4.1-.55-8.2-.66-12.3-.16-4.11-.12-8.23-.02-12.33l.12.02z"/><path fill="#2B1E10" d="M487.91 488.65l-.21 1.2a40.28 40.28 0 0 0-.4 3.4 74.55 74.55 0 0 0-.19 5.33l-.01 6.93a71.6 71.6 0 0 1-.54 8.19c-.3 2.89-.68 5.93-1.08 9.08-.43 3.15-.87 6.4-1.44 9.69a123.65 123.65 0 0 1-.88 4.95c-.32 1.66-.6 3.33-.99 4.98-.37 1.66-.7 3.32-1.1 4.96l-1.22 4.9c-.91 3.2-1.8 6.37-2.8 9.39-.97 3.02-1.95 5.94-3.02 8.66a66.55 66.55 0 0 1-3.5 7.46 51.18 51.18 0 0 1-3.78 5.85 51.4 51.4 0 0 1-3.45 4.1 54.7 54.7 0 0 1-2.42 2.45l-.88.85-.07-.07.83-.9c.55-.56 1.32-1.43 2.27-2.56a67.05 67.05 0 0 0 3.23-4.22 59.77 59.77 0 0 0 6.84-13.33c1.05-2.7 2.04-5.58 3-8.6 1-3.01 1.91-6.15 2.87-9.33l1.28-4.85c.43-1.63.77-3.28 1.16-4.92.4-1.64.7-3.3 1.04-4.95.34-1.65.65-3.3.93-4.94.6-3.27 1.07-6.51 1.54-9.64.43-3.14.84-6.18 1.18-9.07.4-2.88.6-5.6.66-8.14l.1-6.92c.05-2.07.14-3.87.28-5.34a41.06 41.06 0 0 1 .44-3.42l.23-1.19.06-.02zm-51.7-81.4l.14 1.57c.08 1.02.27 2.51.36 4.43l.34 6.9.1 2.06.2 2.17.46 4.69c.39 3.26.61 6.81.78 10.58.02 1.89.08 3.82.08 5.8-.04 1.98-.06 4-.14 6.05-.12 2.05-.2 4.14-.37 6.25-.21 2.1-.36 4.24-.62 6.38-.52 4.3-1.09 8.64-1.99 12.95-.22 1.07-.42 2.14-.67 3.2l-.86 3.2c-.51 2.13-1.3 4.17-1.94 6.24-1.47 4.08-3.2 7.95-4.6 11.8l-2 5.68-.97 2.77-1.04 2.68c-.36.88-.66 1.74-1.04 2.6l-1.12 2.46c-.76 1.6-1.42 3.17-2.18 4.64l-2.24 4.16-1.05 1.93-1.08 1.76c-1.43 2.27-2.57 4.3-3.7 5.85l-3.45 4.94-.08-.06 3.24-5.07.8-1.28.82-1.44 1.87-3.22 1.03-1.79.99-1.94 2.13-4.17c.73-1.47 1.37-3.06 2.1-4.67l1.09-2.47c.34-.82.64-1.7.97-2.58 1.35-3.5 2.56-7.26 3.98-11.14 1.41-3.87 3.13-7.76 4.65-11.76.66-2.03 1.46-4.05 1.98-6.15l.88-3.14c.26-1.05.47-2.13.71-3.2.93-4.25 1.53-8.6 2.09-12.85.28-2.14.44-4.26.67-6.36.18-2.1.28-4.18.43-6.22.09-2.05.12-4.06.19-6.04.01-1.97-.03-3.9-.03-5.77-.12-3.75-.31-7.3-.66-10.57l-.4-4.7-.18-2.18-.07-2.06-.26-6.9c-.07-1.91-.25-3.41-.31-4.43l-.13-1.57.11-.01zm41.39 53.74s.13.47.2 1.37c.1.9.05 2.24-.14 3.9-.1.85-.21 1.77-.3 2.78-.07 1-.09 2.1-.1 3.27-.02 2.33.12 4.98 0 7.87a108.7 108.7 0 0 1-.73 9.29c-.19 1.64-.4 3.33-.66 5.04-.24 1.73-.53 3.47-.81 5.25l-1.8 10.97c-.6 3.73-1.14 7.54-1.8 11.33-.3 1.9-.65 3.8-1 5.68-.34 1.89-.73 3.76-1.11 5.61-.77 3.71-1.62 7.35-2.6 10.83-.44 1.75-.97 3.45-1.48 5.11a86.16 86.16 0 0 1-1.6 4.85 120.27 120.27 0 0 1-3.4 8.7c-1.15 2.66-2.49 5-3.88 6.9a46.3 46.3 0 0 1-3.89 4.7 56.38 56.38 0 0 0-2.63 2.88l-.87 1.07-.08-.07.82-1.11c.54-.72 1.38-1.76 2.48-3.02 1.07-1.3 2.37-2.86 3.66-4.8a39.41 39.41 0 0 0 3.63-6.89 138.18 138.18 0 0 0 3.22-8.7 86 86 0 0 0 1.58-4.8c.51-1.66 1.04-3.34 1.49-5.08.47-1.73.96-3.5 1.37-5.3.44-1.8.9-3.61 1.28-5.46.4-1.84.82-3.7 1.17-5.58.38-1.88.75-3.76 1.07-5.65.7-3.78 1.26-7.58 1.9-11.31l1.9-10.95c.3-1.77.61-3.52.86-5.23.28-1.71.52-3.39.72-5.03.44-3.27.7-6.37.84-9.25.17-2.87.06-5.51.1-7.86.03-1.17.06-2.26.15-3.28.1-1.02.23-1.94.33-2.77.22-1.67.28-2.99.2-3.88a8.53 8.53 0 0 0-.19-1.36l.12-.03zm-338.81-6.22l.46 1.48.55 1.77.91 2.34c.33.88.74 1.84 1.18 2.89.43 1.05.87 2.2 1.33 3.44.91 2.46 1.87 5.27 3.18 8.2 1.25 2.95 3.25 5.82 5.2 8.98l6.19 9.86c2.11 3.45 4.39 6.94 6.68 10.5l6.96 10.8a996.7 996.7 0 0 0 7.18 10.66 192.62 192.62 0 0 0 3.59 5.17c1.21 1.68 2.37 3.38 3.59 4.98l3.6 4.71c1.17 1.54 2.4 3 3.55 4.45 1.17 1.44 2.36 2.77 3.48 4.1 1.13 1.32 2.34 2.48 3.44 3.66l.82.86.87.78 1.68 1.5c.55.49 1.07 1 1.6 1.42l1.62 1.23c2.07 1.61 4 2.84 5.49 4 .75.58 1.44 1.06 2 1.53l1.39 1.24 1.15 1.04-1.19-1-1.42-1.18c-.58-.46-1.28-.92-2.05-1.47-1.5-1.12-3.48-2.3-5.6-3.86l-1.64-1.19c-.57-.43-1.09-.92-1.66-1.4l-1.72-1.48-.9-.77a647.66 647.66 0 0 0-.84-.85c-1.12-1.17-2.36-2.32-3.52-3.63-1.15-1.32-2.37-2.65-3.56-4.07-1.18-1.43-2.43-2.86-3.63-4.4l-3.66-4.7c-1.23-1.6-2.4-3.3-3.62-4.98a194 194 0 0 1-3.63-5.17 963.8 963.8 0 0 1-7.23-10.63 49605.04 49605.04 0 0 0-6.92-10.85c-2.28-3.58-4.54-7.09-6.63-10.54l-6.07-9.94-2.8-4.61c-.42-.77-.87-1.51-1.25-2.27-.36-.77-.74-1.5-1.05-2.26-1.3-2.98-2.17-5.82-3.02-8.3a110.94 110.94 0 0 0-1.23-3.46c-.41-1.06-.8-2.02-1.1-2.92-.33-.89-.63-1.68-.86-2.37l-.48-1.8c-.24-1-.4-1.53-.4-1.53zm40.31-78.13l.92 6.96c.3 2.2.62 4.9 1.08 7.97.42 3.09 1.11 6.51 1.89 10.26.8 3.74 1.8 7.76 2.85 12.02 1.05 4.25 2.15 8.75 3.07 13.45.97 4.69 1.94 9.53 3.39 14.31l.54 1.8.62 1.78 1.26 3.59 2.54 7.2a335.43 335.43 0 0 1 2.5 7.23c.8 2.41 1.67 4.78 2.5 7.15 1.73 4.7 3.5 9.31 5.4 13.7.94 2.19 1.94 4.31 2.9 6.4 1.04 2.04 1.95 4.1 3.02 6 2.04 3.88 4.1 7.49 5.93 10.84 1.87 3.34 3.48 6.47 4.93 9.21.72 1.39 1.42 2.66 2.01 3.87.6 1.23 1.03 2.39 1.43 3.43a15.74 15.74 0 0 0 3.3 5.57l.32.35-.33-.34a14.6 14.6 0 0 1-.93-1c-.79-.9-1.74-2.42-2.57-4.5-.43-1.03-.9-2.16-1.53-3.35-.62-1.18-1.35-2.45-2.1-3.81-1.53-2.7-3.14-5.82-5.06-9.13-1.89-3.34-3.98-6.9-6.08-10.77-1.1-1.9-2.06-3.95-3.1-6-.98-2.1-2-4.23-2.95-6.43-1.92-4.39-3.72-9-5.47-13.72-1.74-4.72-3.34-9.57-5.05-14.38l-2.52-7.21-1.24-3.6-.61-1.8-.55-1.82c-1.44-4.84-2.4-9.71-3.34-14.4a362.02 362.02 0 0 0-2.93-13.46c-.99-4.27-1.93-8.31-2.69-12.07-.74-3.76-1.35-7.23-1.7-10.32-.38-3.1-.64-5.79-.89-8l-.78-6.95zm-23.47-.11l.94 7.48c.3 2.38.75 5.25 1.54 8.5.78 3.23 1.92 6.83 2.96 10.81a71.01 71.01 0 0 1 1.37 6.3c.38 2.18.82 4.4 1.47 6.66 1.24 4.52 3.05 9.14 5.05 13.86 2 4.73 4.24 9.55 6.29 14.56a240.99 240.99 0 0 0 6.45 15l7 14.79c2.3 4.89 4.45 9.76 6.53 14.45 2.11 4.69 4.12 9.22 6.23 13.42 1.01 2.13 2.14 4.12 3.16 6.08 1.11 1.91 2.16 3.78 3.24 5.52 2.17 3.5 4.3 6.58 6.25 9.3 1.98 2.68 3.52 5.18 4.92 7.12 1.4 1.94 2.71 3.3 3.7 4.12.5.4.9.7 1.17.88l.42.28-.43-.27a13.59 13.59 0 0 1-1.2-.85 22.2 22.2 0 0 1-3.82-4.05c-1.46-1.92-3.04-4.35-5.09-7a141.9 141.9 0 0 1-6.41-9.22c-1.12-1.74-2.19-3.6-3.33-5.5-1.05-1.96-2.2-3.95-3.25-6.07a269.87 269.87 0 0 1-6.36-13.4c-2.1-4.7-4.26-9.54-6.57-14.41-2.3-4.88-4.75-9.79-7.06-14.77a242.22 242.22 0 0 1-6.41-15.07c-2.01-5-4.23-9.82-6.22-14.57-2-4.74-3.75-9.43-4.95-14.01a63.72 63.72 0 0 1-1.4-6.76 70.24 70.24 0 0 0-1.28-6.25c-1-3.98-2.07-7.6-2.78-10.88a75.76 75.76 0 0 1-1.36-8.55l-.78-7.51zm-19.82 11.76l.19.48c.13.32.27.8.42 1.45.32 1.29.43 3.24.95 5.65l2.01 8.67c.4 1.67.79 3.47 1.25 5.33l1.51 5.88c.54 2.04 1.06 4.18 1.66 6.38l2.16 6.71 1.12 3.5.57 1.78.7 1.77 2.79 7.25c.5 1.23.9 2.5 1.48 3.7l1.68 3.7 3.42 7.5 3.59 7.57 3.55 7.67 3.62 7.62 3.88 7.4 4.1 7.17 4.18 6.86 4.27 6.5c1.44 2.1 2.93 4.08 4.33 6.06 1.37 1.99 2.89 3.78 4.31 5.56a414.36 414.36 0 0 0 4.21 5.08c5.46 6.46 10.12 11.75 13.63 15.22a32.1 32.1 0 0 0 4.31 3.75c.55.37 1.02.58 1.36.62.35.05.48-.16.48-.14 0-.02-.12.2-.48.15a3.46 3.46 0 0 1-1.38-.6 32.3 32.3 0 0 1-4.4-3.66 222.62 222.62 0 0 1-13.95-14.97 410.04 410.04 0 0 1-4.27-5.04c-1.45-1.76-3-3.56-4.4-5.54-1.44-1.96-2.95-3.94-4.42-6.03l-4.33-6.5-4.24-6.87-4.12-7.15-3.93-7.44-3.67-7.63-3.51-7.68-3.56-7.59-3.4-7.53-1.67-3.71c-.58-1.21-.98-2.5-1.47-3.72l-2.76-7.3-.67-1.79-.56-1.8-1.09-3.52-2.08-6.77c-.57-2.2-1.07-4.35-1.58-6.4l-1.43-5.9c-.43-1.9-.78-3.69-1.14-5.37l-1.82-8.72c-.47-2.43-.54-4.38-.83-5.67a9.65 9.65 0 0 0-.4-1.45c-.15-.3-.21-.47-.21-.47zm318.84 32.92l.51 5.95.26 3.13.05 3.7.05 4.23c.03 1.49-.13 3.04-.18 4.67l-.27 5.08-.55 5.41c-.3 3.73-.99 7.6-1.52 11.65-.68 4.01-1.33 8.17-2.11 12.37l-2.3 12.75a80.36 80.36 0 0 1-.6 3.21c-.24 1.06-.4 2.13-.69 3.18l-.83 3.15c-.28 1.05-.63 2.07-.94 3.1-1.3 4.09-2.84 8.02-4.4 11.78l-4.58 10.8c-1.42 3.46-2.77 6.72-4.13 9.69a75.93 75.93 0 0 1-3.96 7.98l-1.01 1.64c-.33.53-.7 1-1.03 1.48-.64.96-1.36 1.74-2.02 2.44-1.34 1.35-2.4 2.4-3.02 3.2-.31.4-.53.72-.65.95l-.2.33-.1-.04.2-.35c.11-.24.32-.58.62-.99.6-.83 1.62-1.94 2.9-3.34.61-.7 1.3-1.5 1.89-2.47.3-.48.66-.95.97-1.48l.95-1.65c1.25-2.3 2.5-5.03 3.74-8.03 1.3-2.97 2.6-6.25 3.97-9.72 1.37-3.47 3-7.06 4.53-10.82a166.9 166.9 0 0 0 4.43-11.7c.32-1 .68-2.02.97-3.04l.85-3.1c.3-1.03.48-2.1.72-3.16.24-1.07.45-2.1.65-3.18l2.4-12.73c.8-4.2 1.5-8.34 2.2-12.34.58-4.03 1.28-7.9 1.64-11.6l.6-5.4.33-5.07c.08-1.62.25-3.17.24-4.65v-7.91l-.23-3.14-.45-5.95.1-.04zm7.18 57.34l-.84 3.76c-.21 1.2-.39 2.67-.64 4.36-.22 1.69-.38 3.6-.73 5.68-.19 1.04-.27 2.13-.56 3.25l-.84 3.4c-.25 1.17-.71 2.34-1.09 3.55-.4 1.2-.8 2.44-1.24 3.67l-1.33 3.77-1.27 3.87c-.87 2.63-1.6 5.32-2.55 7.97l-1.4 3.97-1.54 3.88c-.48 1.3-1.09 2.53-1.66 3.76-.58 1.23-1.11 2.46-1.71 3.63a129.3 129.3 0 0 1-3.59 6.69c-.64 1.03-1.22 2.05-1.86 3l-1.9 2.7a46.64 46.64 0 0 1-3.87 4.26 220.67 220.67 0 0 1-3.16 3.1c-.86.87-1.47 1.61-1.92 2.09l-.67.74-.08-.06.62-.79c.42-.5 1-1.29 1.8-2.2l2.98-3.26c1.18-1.2 2.4-2.74 3.66-4.36l1.81-2.7c.6-.94 1.15-1.97 1.76-3a189.67 189.67 0 0 0 3.5-6.68c.6-1.16 1.14-2.37 1.73-3.58.57-1.22 1.2-2.43 1.7-3.7l1.6-3.83 1.44-3.92c.98-2.6 1.75-5.31 2.65-7.91l1.33-3.89 1.38-3.75c.47-1.23.88-2.44 1.29-3.63.38-1.2.86-2.33 1.13-3.5l.9-3.4c.3-1.07.41-2.17.61-3.2.4-2.05.58-3.97.84-5.65.27-1.7.48-3.17.71-4.37l.91-3.74.1.02zm-87.59-68.13s.2.42.53 1.23c.27.83.63 2.08.83 3.7.24 1.62.39 3.6.68 5.84.23 2.26.51 4.81.75 7.6.14 2.8.38 5.81.47 9.03l.08 2.43c.02.82 0 1.66 0 2.5 0 1.7-.07 3.42-.15 5.17l-.25 5.32c-.1 1.77-.1 3.6-.15 5.43-.02 3.66.06 7.38-.1 11.13-.14 3.77-.77 7.47-1.3 11.09l-1.08 5.37c-.36 1.78-.83 3.49-1.23 5.2-.81 3.4-1.73 6.64-2.59 9.75-.46 1.53-.86 3.03-1.4 4.46l-.75 2.1-.86 1.98c-.3.63-.54 1.28-.86 1.87l-.97 1.72c-.34.55-.6 1.1-.97 1.61-.37.48-.67.98-1.08 1.4-1.52 1.73-3.01 3.02-4.09 4.24-.53.61-1 1.17-1.36 1.68-.33.54-.68.96-.84 1.37l-.53 1.23.48-1.25c.15-.42.48-.86.78-1.41.34-.54.8-1.12 1.32-1.75 1.05-1.25 2.52-2.61 3.94-4.34.38-.4.68-.93 1.03-1.41.33-.48.59-1.06.9-1.6l.92-1.72c.3-.6.53-1.24.8-1.87l.82-1.96.7-2.1c.51-1.4.89-2.92 1.32-4.46.41-1.52.8-3.14 1.21-4.76.41-1.63.84-3.3 1.23-5 .39-1.7.86-3.4 1.2-5.16l1.04-5.32c.5-3.64 1.1-7.3 1.22-11 .18-3.7.12-7.43.17-11.11.06-1.84.07-3.65.19-5.46l.27-5.31c.1-1.75.16-3.46.2-5.13.01-.83.05-1.66.05-2.48l-.04-2.43c-.03-3.19-.21-6.22-.3-9l-.56-7.61c-.23-2.26-.3-4.24-.5-5.86a21.47 21.47 0 0 0-.69-3.7c-.32-.88-.5-1.3-.5-1.3zm78.03 116.7l-.15 1.81c-.06.57-.08 1.27-.25 2.07-.14.8-.26 1.7-.5 2.67-.26.96-.5 2.02-.83 3.1-.37 1.08-.68 2.25-1.16 3.4-.46 1.16-.9 2.37-1.47 3.55a77.3 77.3 0 0 1-1.7 3.57c-.58 1.19-1.24 2.34-1.84 3.5a61.22 61.22 0 0 1-1.95 3.3 37.27 37.27 0 0 1-4.1 5.44 17.62 17.62 0 0 1-1.99 1.87c-.64.5-1.24.88-1.75 1.17-.53.25-.94.43-1.25.5l-.45.15.43-.2c.3-.1.68-.33 1.17-.62a13.54 13.54 0 0 0 1.61-1.28 25.37 25.37 0 0 0 1.81-1.96 41.97 41.97 0 0 0 3.77-5.53c.63-1.05 1.23-2.17 1.85-3.3.59-1.16 1.23-2.3 1.8-3.49a77.46 77.46 0 0 0 1.71-3.52c.56-1.17 1.05-2.33 1.53-3.47.5-1.12.87-2.25 1.29-3.3.38-1.05.67-2.08.98-3.01.27-.95.47-1.82.68-2.6.23-.77.31-1.47.42-2.03l.33-1.77z"/><linearGradient id="j" x1="80.08" x2="188.7" y1="763.69" y2="763.69" gradientUnits="userSpaceOnUse"><stop offset=".01" stop-color="#0AABBC"/><stop offset=".22" stop-color="#0696AD"/><stop offset=".48" stop-color="#03819F"/><stop offset=".75" stop-color="#017496"/><stop offset="1" stop-color="#007093"/></linearGradient><path fill="url(#j)" stroke="#000" stroke-miterlimit="10" d="M83.05 738.84l105.65 11.92v37.78l-108.62-4.06z"/><path fill="#5E5E5E" d="M136.67 416.62c5.46 2.33 11.32 1.17 13.1-2.6 1.77-3.76-1.22-8.71-6.68-11.04-5.46-2.34-11.32-1.18-13.1 2.6-1.77 3.76 1.22 8.7 6.68 11.04zm-4.27-10.02c1.35-2.85 5.78-3.73 9.9-1.97 4.12 1.77 6.39 5.5 5.05 8.35-1.34 2.85-5.77 3.73-9.9 1.97-4.12-1.77-6.38-5.5-5.05-8.35z"/><linearGradient id="k" x1="130.27" x2="449.56" y1="315.68" y2="315.68" gradientUnits="userSpaceOnUse"><stop offset=".01" stop-color="#E7AB8B"/><stop offset=".2" stop-color="#EEBDA0"/><stop offset=".42" stop-color="#F3CBB0"/><stop offset=".66" stop-color="#F6D3B9"/><stop offset="1" stop-color="#F7D5BC"/></linearGradient><path fill="url(#k)" stroke="#0B0B0B" stroke-miterlimit="10" d="M136.56 345.81l.03.08c-10.35-53.87-12.14-127.52 27.3-204.37 26.37-30.51 67.65-55.23 131.22-37.66 63.56 17.56 149.9 46.2 152.97 85.33 3.06 39.12 1.03 148.6-2.88 161.88-3.9 13.27-6.75 60.8-6.06 75.6.7 14.78-76.9 111.43-144.05 106.51 0 0-42.56-6.85-72.58-27.34-31.08-21.21-54.5-54.58-61.64-78.09"/><path fill="#835C27" d="M168.52 64.97s56.79-52.55 108.98-35.34c52.18 17.22 131.77 50.45 196.77 152.6 65 102.14 96.11 319.17 6.27 445.17 19.04-50.2 25.5-267.34-55.16-301.86-80.67-34.52-196.32-73-235.05-180.36 15.7 52.25 21.1 86.43-54.42 199.46-4.3-2.3-30.07-28.3-41.2-20.61-11.7 8.07-12.46 69.35 49.72 95.54 8.5-2.24 11.55-.99 11.55-.99s-12.95 58.04 22.37 114.34c35.32 56.3 81.12 109.91 81.12 109.91S141.65 602.84 79.96 506.6C48.64 438.83-7.8 289.17 69.76 153.56 98.77 100 127.78 54.84 168.5 64.97z"/><linearGradient id="l" x1="593.57" x2="156.59" y1="513.89" y2="76.9" gradientUnits="userSpaceOnUse"><stop offset=".01" stop-color="#4A331A"/><stop offset=".03" stop-color="#56391C"/><stop offset=".11" stop-color="#7D4C22"/><stop offset=".17" stop-color="#955826"/><stop offset=".21" stop-color="#9E5C27"/><stop offset=".4" stop-color="#754821" stop-opacity=".96"/><stop offset=".58" stop-color="#56391C" stop-opacity=".92"/><stop offset=".68" stop-color="#4A331A" stop-opacity=".89"/><stop offset=".89" stop-color="#4A3321" stop-opacity=".44"/><stop offset="1" stop-color="#4A3327" stop-opacity=".2"/></linearGradient><path fill="url(#l)" d="M168.52 64.97s56.79-52.55 108.98-35.34c52.18 17.22 131.77 50.45 196.77 152.6 65 102.14 96.11 318.68 6.27 444.68 19.04-50.2 25.5-266.85-55.16-301.38-80.67-34.52-196.32-73-235.05-180.36"/><linearGradient id="m" x1="30.65" x2="259.47" y1="352.7" y2="352.7" gradientUnits="userSpaceOnUse"><stop offset=".04" stop-color="#9E5C27"/><stop offset=".19" stop-color="#8F5527" stop-opacity=".87"/><stop offset=".73" stop-color="#5D3C27" stop-opacity=".42"/><stop offset="1" stop-color="#4A3327" stop-opacity=".2"/></linearGradient><path fill="url(#m)" d="M190.33 143.7c15.7 52.25 21.1 87.91-54.41 200.94-4.3-2.31-30.08-29.78-41.21-22.1-11.7 8.07-12.46 69.35 49.72 95.54 8.5-2.24 11.55-.98 11.55-.98s-12.95 58.03 22.37 114.33 81.12 111.9 81.12 111.9S141.65 601.35 79.96 505.1C48.64 437.35-7.8 287.68 69.76 152.07c29.02-53.57 58.03-98.72 98.75-88.59"/><path fill="#A06E1C" d="M195.55 111.93l.4.22a19.15 19.15 0 0 1 5.04 4.21c3.06 3.47 6.2 9.54 9.57 17.42l2.64 6.24c.91 2.2 1.85 4.48 2.91 6.84a90.34 90.34 0 0 0 8.27 14.46 113.6 113.6 0 0 0 5.6 7.32c2.02 2.43 4.22 4.83 6.42 7.38 4.39 5.1 8.7 10.69 13.2 16.5 4.5 5.82 9.17 11.9 14.19 18.02 5.03 6.12 10.4 12.32 16.5 18.08a83.29 83.29 0 0 0 9.86 8.05c1.74 1.3 3.58 2.42 5.4 3.63.91.58 1.86 1.13 2.8 1.7a57.83 57.83 0 0 0 2.85 1.65 180.4 180.4 0 0 0 24.54 11.23c17.17 6.52 35.58 11.35 53.78 17.9a259.79 259.79 0 0 1 13.55 5.35 170.52 170.52 0 0 1 13.2 6.4c4.31 2.31 8.48 4.94 12.5 7.76 4.06 2.8 7.82 6 11.56 9.16 14.93 12.74 28.83 26.86 40.07 42.65a158.43 158.43 0 0 1 14.57 24.78 137.39 137.39 0 0 1 5.33 13.1c1.54 4.44 2.8 8.9 3.93 13.37 4.55 17.9 6.57 35.64 8.35 52.4.88 8.38 1.67 16.54 2.57 24.41.95 7.9 1.3 15.59 1.36 22.95.16 14.75-1.08 28.23-2.4 40.1-.65 5.96-1.46 11.5-2.17 16.62-.78 5.12-1.54 9.8-2.24 14.04l-2.03 11.28c-.62 3.27-1.2 6.05-1.65 8.3l-1.38 6.92 1.3-6.93c.41-2.26.97-5.04 1.54-8.33l1.9-11.3c.65-4.23 1.35-8.93 2.06-14.05.65-5.13 1.4-10.67 1.96-16.62.15-1.48.33-2.99.46-4.52l.39-4.68c.12-1.58.27-3.18.38-4.8l.29-4.96c.23-3.34.3-6.77.47-10.28.07-3.51.18-7.11.12-10.78a204.8 204.8 0 0 0-1.35-22.84c-.9-7.89-1.7-16.05-2.58-24.43-1.77-16.74-3.8-34.45-8.31-52.24a158.49 158.49 0 0 0-3.91-13.3 136.33 136.33 0 0 0-5.3-13 157.45 157.45 0 0 0-14.47-24.63c-11.18-15.7-25.02-29.77-39.9-42.47-3.74-3.16-7.48-6.33-11.49-9.1a124 124 0 0 0-12.42-7.7 169.01 169.01 0 0 0-13.1-6.36 258.66 258.66 0 0 0-13.5-5.32c-18.14-6.54-36.56-11.37-53.8-17.92a181.35 181.35 0 0 1-24.67-11.3 57.45 57.45 0 0 1-2.87-1.66c-.95-.57-1.9-1.12-2.83-1.71-1.83-1.21-3.7-2.37-5.44-3.65a84.19 84.19 0 0 1-9.96-8.14c-6.16-5.81-11.55-12.04-16.6-18.17-5.03-6.14-9.7-12.23-14.2-18.04a553 553 0 0 0-13.14-16.49c-2.15-2.55-4.34-5-6.34-7.48-2-2.48-3.85-4.96-5.54-7.44a91.17 91.17 0 0 1-8.13-14.67c-1.04-2.37-1.95-4.69-2.83-6.88l-2.57-6.27c-3.27-7.92-6.32-14-9.34-17.5a19.06 19.06 0 0 0-3.83-3.54 14.82 14.82 0 0 0-1.14-.71l-.4-.22zM178.69 113.04l-.44 2.32c-.12.76-.22 1.7-.35 2.81-.06 1.12-.2 2.4-.2 3.83a91.7 91.7 0 0 0 .45 10.34c.2 1.99.42 4.1.69 6.33l.73 7.04c.52 4.9.96 10.3.94 15.94l.13 8.7c.02 2.97-.02 6-.03 9.09l-.04 4.67c0 1.56-.1 3.14-.14 4.73l-.35 9.63-.7 9.76c-.12 1.64-.21 3.28-.37 4.92-.16 1.64-.35 3.28-.56 4.91a270.07 270.07 0 0 1-3.27 19.39 264.77 264.77 0 0 1-4.48 18.51c-3.35 11.89-7.44 22.77-12.3 31.43a63.15 63.15 0 0 1-3.8 6.03 49.74 49.74 0 0 1-4.1 4.95 29.56 29.56 0 0 1-8.3 6.32 19.43 19.43 0 0 1-6.39 1.93c-.77.1-1.36.13-1.76.13l-.6.02.6-.04c.4-.02.99-.07 1.75-.2a19.2 19.2 0 0 0 6.25-2.15 28.99 28.99 0 0 0 7.9-6.5 48.82 48.82 0 0 0 3.85-5.02 78.91 78.91 0 0 0 3.72-5.96c4.81-8.56 8.88-19.37 12.22-31.2a264.58 264.58 0 0 0 4.46-18.45c1.3-6.33 2.41-12.8 3.26-19.31.2-1.63.4-3.26.56-4.89.15-1.63.24-3.27.37-4.9l.7-9.73.34-9.6c.05-1.6.14-3.16.15-4.73l.03-4.65c0-3.08.06-6.11.04-9.08l-.14-8.7a143.3 143.3 0 0 0-.93-15.84c-.25-2.45-.54-4.8-.73-7.04a241.44 241.44 0 0 1-.44-6.39 92.23 92.23 0 0 1-.05-10.4c.05-1.44.24-2.72.34-3.84.18-1.1.32-2.05.46-2.8l.54-2.31zM161.41 110.12l.9 1.92c.47 1.3 1.16 3.23 1.54 5.8.43 2.56.68 5.7.7 9.32.01 1.8-.05 3.72-.13 5.74-.1 2.02-.3 4.14-.5 6.34l-.62 6.87-.53 7.36-.62 7.78-.79 8.12c-.6 5.5-1.26 11.19-2.2 16.93a222.43 222.43 0 0 1-3.4 17.3 543.84 543.84 0 0 1-4.44 17.06c-1.6 5.59-3.28 11.06-5.1 16.3a193.83 193.83 0 0 1-5.84 14.87c-.99 2.34-2.11 4.55-3.15 6.7-1.05 2.15-2.2 4.16-3.23 6.13-1.14 1.9-2.18 3.76-3.28 5.46l-3.29 4.71-3.1 4c-.97 1.21-1.95 2.26-2.78 3.25-1.65 1.99-3.16 3.36-4.1 4.37l-1.5 1.5 1.43-1.57c.9-1.04 2.34-2.47 3.9-4.53.8-1.01 1.73-2.1 2.64-3.35l2.9-4.1 3.07-4.8 3.24-5.43c1.02-1.95 2.16-3.95 3.21-6.08 1.03-2.15 2.15-4.34 3.12-6.67 2.1-4.6 3.97-9.6 5.82-14.8 1.8-5.2 3.49-10.66 5.07-16.23a546.3 546.3 0 0 0 4.43-17.02c1.33-5.73 2.53-11.5 3.4-17.23a318.3 318.3 0 0 0 2.19-16.87l.78-8.1.62-7.77.54-7.37.6-6.88c.22-2.2.36-4.3.52-6.31.17-2 .3-3.9.36-5.7.14-3.57.03-6.7-.28-9.25-.27-2.56-.88-4.5-1.28-5.81l-.83-1.98zM153.43 87.52l-.54 2.14-.65 2.58c-.27 1-.63 2.15-1 3.44-.37 1.3-.83 2.72-1.35 4.25l-.8 2.4-.95 2.55c-.63 1.77-1.36 3.63-2.15 5.58-.77 1.96-1.74 3.94-2.66 6.06a809.02 809.02 0 0 1-6.36 13.45 555.32 555.32 0 0 0-7.02 15.03 180.47 180.47 0 0 0-6.46 16.47c-.52 1.42-.92 2.86-1.34 4.33l-1.28 4.4c-.83 2.94-1.76 5.87-2.44 8.86l-2.21 8.91c-.73 2.96-1.39 5.94-2.07 8.88-1.34 5.9-2.76 11.68-4.09 17.29-.67 2.81-1.46 5.52-2.16 8.2l-2.28 7.81a1449.9 1449.9 0 0 0-4.24 14.25c-1.19 4.45-2.4 8.48-3.3 12.1-1.01 3.61-1.54 6.82-2.1 9.45-.32 1.3-.4 2.5-.57 3.53l-.35 2.63-.3 2.19.21-2.2.25-2.64c.11-1.04.16-2.25.41-3.57.47-2.64.87-5.9 1.73-9.55.41-1.83.77-3.8 1.31-5.83.53-2.04 1.13-4.16 1.75-6.38 1.29-4.43 2.71-9.22 4.24-14.26l2.27-7.79c.7-2.67 1.5-5.4 2.16-8.19 1.33-5.6 2.74-11.37 4.08-17.26.7-2.95 1.35-5.92 2.08-8.9l2.21-8.94c.69-3 1.62-5.93 2.45-8.87l1.28-4.4c.42-1.45.83-2.94 1.35-4.36 1.91-5.76 4.15-11.3 6.5-16.57 2.34-5.27 4.74-10.3 7.03-15.05a816.41 816.41 0 0 0 6.35-13.44c.93-2.1 1.84-4.1 2.66-6.03.86-1.91 1.67-3.73 2.37-5.46l1.04-2.5.9-2.36c.58-1.5 1.1-2.9 1.52-4.17.42-1.27.83-2.4 1.14-3.4l.75-2.54.63-2.09zM141.3 154.28l-.99 3.74-1.16 4.28-.72 2.64c-.26.92-.63 1.87-.95 2.87l-9.8 29.32-2.54 7.98c-.86 2.63-1.61 5.25-2.36 7.77-.73 2.53-1.5 4.95-2.1 7.29l-1.73 6.57-2.61 9.83-1.02 3.74.65-3.81.77-4.38.48-2.7c.2-.93.5-1.9.76-2.93l1.73-6.59c.6-2.34 1.38-4.77 2.11-7.3.75-2.53 1.5-5.15 2.37-7.78l2.54-8 9.8-29.31c.63-2.01 1.3-3.83 1.9-5.44l1.52-4.16 1.37-3.62zM147.26 83.96l-2.92 1.65c-.48.27-1.02.55-1.6.9l-1.82 1.22-2.13 1.41c-.73.53-1.49 1.13-2.3 1.75a102.18 102.18 0 0 0-10.97 9.76l-3.04 3.16-3.1 3.46c-2.1 2.4-4.31 4.91-6.5 7.64-4.4 5.42-8.92 11.5-13.54 18.05-2.31 3.27-4.65 6.67-7.04 10.13-1.17 1.74-2.44 3.48-3.58 5.27l-1.75 2.72-.89 1.38-.8 1.41c-4.4 7.5-8.1 15.77-11.26 24.37a266.94 266.94 0 0 0-8.07 26.6 529.25 529.25 0 0 0-5.99 27.18l-2.57 13.4-2.27 13.13-1.78 12.75c-.48 4.17-.87 8.27-1.3 12.26-.63 7.98-1.19 15.54-1.25 22.53-.1 3.5-.19 6.84-.1 10.03l.07 9.05c.08 2.84.29 5.49.4 7.94.16 2.46.25 4.72.42 6.75L53 352.62l-1.77-12.72c-.22-2.03-.37-4.3-.59-6.75-.18-2.45-.46-5.1-.62-7.95-.15-5.7-.59-12.12-.23-19.13.06-7.02.62-14.6 1.26-22.6.42-4 .82-8.1 1.3-12.3l1.78-12.79 2.28-13.14 2.57-13.42a529.24 529.24 0 0 1 6-27.23 267.49 267.49 0 0 1 8.1-26.7 152.9 152.9 0 0 1 11.35-24.55l.81-1.43.89-1.37 1.75-2.72c1.17-1.84 2.41-3.54 3.6-5.3 2.39-3.46 4.73-6.86 7.04-10.13a339.84 339.84 0 0 1 13.59-18.11 187.62 187.62 0 0 1 6.52-7.67l3.22-3.4 3.14-3.1c4.14-3.92 7.94-7.15 11.29-9.5.83-.6 1.6-1.18 2.36-1.7l2.17-1.35 1.87-1.17c.58-.34 1.13-.6 1.6-.86l2.98-1.58zM88.38 407.22l.42.67c.3.44.66 1.13 1.1 2.05a37.97 37.97 0 0 1 2.49 8.45c.36 1.86.7 3.94 1.05 6.2.37 2.25.75 4.69 1.38 7.24l2 8.17c.7 2.87 1.53 5.87 2.35 9 1.7 6.26 3.72 13 5.93 20.12.28.88.55 1.8.84 2.67l.91 2.7 1.87 5.49c.67 1.83 1.44 3.64 2.16 5.49.74 1.84 1.45 3.72 2.35 5.54l2.6 5.54c.9 1.85 1.95 3.64 2.93 5.47l1.5 2.76c.53.9 1.11 1.77 1.67 2.67 1.13 1.77 2.24 3.58 3.41 5.35 2.54 3.4 4.94 6.97 7.8 10.18l2.09 2.47 1.04 1.24 1.11 1.17 4.49 4.67c6.1 6.14 12.3 12.22 18.34 18.23 3.01 3.02 6.07 5.95 8.96 8.97l8.63 8.88 8.35 8.58c2.73 2.8 5.4 5.54 7.91 8.3l14.29 15.39c2.2 2.4 4.35 4.64 6.33 6.85l5.46 6.41 8.87 10.42 7.72 9.07-7.98-8.85-9.16-10.15-5.64-6.24-6.34-6.84-14.27-15.38c-2.5-2.75-5.19-5.48-7.91-8.28l-8.34-8.58-8.62-8.87c-2.9-3.02-5.95-5.95-8.96-8.97-6.05-6.02-12.24-12.09-18.35-18.24l-4.51-4.7-1.13-1.18-1.05-1.24-2.1-2.49c-2.88-3.23-5.3-6.83-7.85-10.26-1.19-1.78-2.3-3.6-3.44-5.39-.56-.9-1.15-1.78-1.69-2.69l-1.5-2.77c-1-1.85-2.05-3.65-2.96-5.5l-2.61-5.6c-.9-1.82-1.62-3.71-2.37-5.58-.73-1.86-1.5-3.7-2.18-5.53l-1.86-5.5-.92-2.69c-.3-.92-.56-1.8-.84-2.7a600.01 600.01 0 0 1-5.94-20.15c-.82-3.15-1.7-6.15-2.36-9.04l-1.76-8.23c-.56-2.6-.87-5.06-1.17-7.33-.3-2.27-.57-4.34-.88-6.21-.6-3.74-1.42-6.6-2.22-8.47-.4-.93-.75-1.63-1.03-2.07-.3-.45-.43-.7-.43-.7z" opacity=".5"/><path fill="#A06E1C" d="M124.77 432.1l2 6.9c.63 2.19 1.33 4.87 2.18 7.94l1.31 4.9 1.31 5.46c.92 3.8 1.9 7.93 3.01 12.27a231.41 231.41 0 0 0 1.74 6.67c.64 2.26 1.2 4.6 1.95 6.92.71 2.34 1.4 4.73 2.17 7.11l2.47 7.21c1.82 4.8 3.77 9.62 6.07 14.28a202 202 0 0 0 7.27 13.73c2.61 4.41 5.25 8.71 7.96 12.78a251.18 251.18 0 0 0 4.02 5.96c1.32 1.95 2.67 3.82 3.96 5.65a607.67 607.67 0 0 0 7.45 10.2c1.15 1.57 2.32 3.04 3.35 4.5l2.96 4.1 4.82 6.69 4.19 5.83-4.47-5.62-5.13-6.45-3.15-3.97c-1.1-1.4-2.2-2.92-3.38-4.49a604.81 604.81 0 0 1-7.46-10.21c-1.3-1.84-2.64-3.7-3.96-5.66a253.6 253.6 0 0 1-4.04-5.98c-2.72-4.08-5.37-8.4-7.99-12.83a203.3 203.3 0 0 1-7.3-13.8c-2.32-4.7-4.29-9.55-6.12-14.36l-2.47-7.24c-.79-2.4-1.47-4.8-2.19-7.14-.74-2.34-1.3-4.68-1.94-6.95a228.53 228.53 0 0 1-1.75-6.68c-1.12-4.35-2.1-8.48-3.01-12.29l-1.31-5.46-1.07-4.95c-.7-3.1-1.26-5.81-1.8-8.03-1.02-4.47-1.62-7.01-1.62-7.01zM64.49 390.58l1.18 2.37c.34.8.77 1.77 1.23 2.94.43 1.18.94 2.53 1.4 4.08.96 3.09 1.9 6.9 2.77 11.32.45 2.21.86 4.57 1.3 7.05l1.2 7.84c.44 2.73.92 5.56 1.53 8.46.6 2.9 1.38 5.9 2.1 8.98 1.41 6.18 3.11 12.63 4.85 19.31.83 3.35 1.87 6.7 2.82 10.13.98 3.41 1.92 6.89 3.06 10.33l3.31 10.43a83.48 83.48 0 0 0 4.21 10.13 96.88 96.88 0 0 0 5.5 9.5c2.02 3.04 4.16 6 6.37 8.86 4.43 5.73 9.05 11.18 13.32 16.63 4.21 5.48 8.36 10.71 12.25 15.71a91.88 91.88 0 0 0 2.96 3.63l2.92 3.48 5.54 6.6a62.56 62.56 0 0 0 2.67 3.04l2.58 2.88 4.7 5.39c2.9 3.43 5.66 6.21 7.87 8.55l7 7.35-7.24-7.1c-2.3-2.27-5.15-4.97-8.17-8.3-3.06-3.3-6.6-6.94-10.17-11.17l-5.56-6.61-2.92-3.49c-1-1.18-2-2.37-2.96-3.63-3.9-5-8.05-10.24-12.26-15.72-4.26-5.42-8.87-10.87-13.32-16.63a155.54 155.54 0 0 1-6.41-8.93 98.39 98.39 0 0 1-5.56-9.6 84.56 84.56 0 0 1-4.27-10.25l-3.31-10.46c-1.14-3.45-2.09-6.93-3.07-10.35-.95-3.43-2-6.79-2.83-10.14-1.74-6.7-3.44-13.17-4.86-19.34-.71-3.1-1.48-6.06-2.1-9a167.03 167.03 0 0 1-1.53-8.51l-1.2-7.85c-.35-2.49-.68-4.86-1.05-7.07-.72-4.42-1.52-8.25-2.37-11.35-.4-1.56-.87-2.92-1.26-4.11-.41-1.18-.81-2.17-1.12-2.97l-1.1-2.42zM66.65 317.46l-.04.97c-.01.63-.1 1.56-.08 2.73l.08 1.93.05 1.1.12 1.18.64 5.43c.1 1 .29 2.03.45 3.1a148.13 148.13 0 0 0 2.1 10.4l1.84 7.54 1.93 7.79 2.02 7.76c.71 2.55 1.37 5.07 2.08 7.48.73 2.42 1.37 4.76 2.09 6.96.72 2.19 1.36 4.27 2.01 6.18.34.95.7 1.85.97 2.72l.77 2.5c.47 1.56 1 2.9 1.37 4l1.2 3.5-1.55-3.35c-.47-1.08-1.11-2.37-1.72-3.9l-1-2.42c-.34-.86-.63-1.78-.98-2.73-.66-1.91-1.3-4-2.03-6.2-.71-2.2-1.36-4.56-2.09-6.98-.71-2.42-1.37-4.95-2.08-7.5l-2.02-7.78-1.94-7.79-1.84-7.56c-.58-2.46-1.1-4.85-1.53-7.13a64.33 64.33 0 0 1-.58-3.33c-.17-1.08-.36-2.12-.46-3.13-.11-1-.27-1.97-.35-2.89l-.05-2.63-.03-1.2.06-1.12.09-1.96c.08-1.18.28-2.08.36-2.71l.14-.95zM185.59 122c0 .03.5.04 1.38.39.87.34 2.1 1.06 3.45 2.32 2.7 2.47 5.84 6.93 8.96 13a110.28 110.28 0 0 1 4.65 10.3c1.47 3.86 3.01 8.01 5.03 12.3 1.99 4.3 4.32 8.77 7.16 13.25.74 1.1 1.44 2.25 2.21 3.36l2.4 3.34 5.39 6.68c.46.56.9 1.14 1.39 1.7l1.46 1.67 2.98 3.39 6.16 6.94 3.17 3.56c1.06 1.2 2.09 2.46 3.14 3.7l6.38 7.58c2.11 2.62 4.45 5.04 6.77 7.56 2.44 2.4 4.87 4.87 7.51 7.18A180.13 180.13 0 0 0 282 243.54c3 2.08 6.02 4.15 9.16 6.13l4.7 3.02 4.79 2.92c3.18 1.99 6.5 3.78 9.8 5.67 1.64.95 3.35 1.78 5.03 2.68 1.7.87 3.36 1.82 5.1 2.62 3.46 1.64 6.9 3.36 10.47 4.82 1.77.74 3.53 1.56 5.33 2.25l5.42 2.06c1.8.72 3.65 1.32 5.49 1.92l5.53 1.82c3.72 1.14 7.45 2.26 11.17 3.44 7.44 2.36 14.83 4.97 21.85 8.4 1.73.9 3.46 1.8 5.17 2.75l4.98 2.97 9.92 5.9c3.3 1.98 6.6 3.9 9.84 5.89l9.58 6.08 9.47 6 4.7 3 4.48 3.2c5.8 4.58 10.88 9.7 15.47 15.1 2.18 2.77 4.47 5.38 6.32 8.32.97 1.44 1.96 2.85 2.88 4.28l2.53 4.4c6.64 11.74 10.75 23.87 13.88 35.14.76 2.83 1.47 5.6 2.24 8.28l1.11 4 1.15 3.87c1.5 5.1 2.94 9.97 3.92 14.64l.4 1.72c.15.6.18 1.16.28 1.73l.48 3.36c.2 1.09.19 2.2.28 3.27l.2 3.15c.03 2.06.08 4.04.08 5.92l-.08 5.39-.1 4.83v4.27c0 2.64.17 4.89.22 6.72l.6 5.56-.69-5.56c-.08-1.82-.29-4.07-.33-6.72l-.06-4.27.02-4.84c-.03-6.8.23-15.14-2.02-24.38-1.05-4.62-2.56-9.42-4.14-14.52-.82-2.54-1.57-5.17-2.3-7.87l-2.23-8.29c-3.11-11.22-7.2-23.28-13.79-34.9l-2.5-4.37c-.91-1.42-1.9-2.8-2.84-4.22-1.8-2.9-4.12-5.52-6.29-8.29-4.51-5.3-9.6-10.43-15.28-14.9l-4.47-3.2-4.65-2.97-9.46-6-9.57-6.07c-3.25-1.98-6.55-3.91-9.84-5.88l-9.92-5.91-4.98-2.97c-1.67-.93-3.4-1.83-5.1-2.72-6.95-3.39-14.3-5.98-21.71-8.34-3.7-1.18-7.44-2.3-11.16-3.43l-5.56-1.83c-1.85-.6-3.7-1.21-5.51-1.94l-5.45-2.07c-1.82-.7-3.58-1.5-5.36-2.26-3.58-1.47-7.04-3.2-10.51-4.84-1.75-.8-3.42-1.76-5.12-2.63-1.69-.9-3.4-1.74-5.06-2.69-3.3-1.9-6.64-3.7-9.83-5.7l-4.82-2.92-4.7-3.02a262.3 262.3 0 0 1-9.2-6.16 180.9 180.9 0 0 1-16.9-13.4c-2.65-2.32-5.1-4.8-7.56-7.22-2.34-2.54-4.71-5-6.81-7.61l-6.38-7.58c-1.05-1.23-2.07-2.48-3.13-3.68l-3.17-3.56-6.16-6.96-3-3.4-1.47-1.67c-.48-.57-.93-1.15-1.4-1.71l-5.39-6.67c-.86-1.15-1.64-2.28-2.44-3.4-.78-1.13-1.49-2.29-2.22-3.41-2.8-4.57-5.07-9.12-7-13.47-1.96-4.34-3.45-8.55-4.84-12.4a109.7 109.7 0 0 0-4.47-10.35c-3.01-6.1-6.06-10.59-8.71-13.1-1.32-1.26-2.53-2-3.4-2.35-.9-.37-1.4-.4-1.4-.42z" opacity=".5"/><path fill="#A06E1C" d="M190.43 99.76l1.68-.2c.55-.08 1.25-.01 2.07-.02.41.02.85.11 1.32.17l.73.1.76.21c2.1.53 4.57 1.66 7.1 3.52a44.4 44.4 0 0 1 7.73 7.49c5.18 6.22 10.21 14.7 15.35 24.67 2.6 4.98 5.17 10.38 8.15 15.9l9.87 17.16a265.47 265.47 0 0 0 11.4 18.22c4.24 6.08 9.03 12.12 14.79 17.5l2.18 2c.72.68 1.52 1.27 2.28 1.92.77.62 1.53 1.28 2.33 1.88l2.44 1.77c1.6 1.23 3.38 2.22 5.1 3.34 1.71 1.06 3.57 2.02 5.37 3.04 7.28 3.96 14.97 7.5 23 10.65 16.06 6.25 33.29 10.94 50.7 16 8.7 2.54 17.45 5.21 26.1 8.3 8.66 3.05 17.25 6.5 25.34 11.01 8.1 4.46 15.72 9.78 22.64 15.84a153.52 153.52 0 0 1 18.84 19.93 228.48 228.48 0 0 1 15.42 22.14 468.48 468.48 0 0 1 13.18 22.77 362.01 362.01 0 0 1 20.83 45.24 260.51 260.51 0 0 1 12.14 42.95 227.93 227.93 0 0 1 2.72 19.67c.5 6.29.72 12.27.68 17.9a181.83 181.83 0 0 1-2.53 28.95c-1.3 7.97-2.96 14.1-4.05 18.26l-1.9 6.35 1.8-6.37c1.04-4.19 2.62-10.33 3.81-18.3 1.22-7.94 2.22-17.7 2.13-28.9a217.95 217.95 0 0 0-3.64-37.38 259.5 259.5 0 0 0-12.1-42.78 361.34 361.34 0 0 0-20.76-45.1 467.4 467.4 0 0 0-13.16-22.74 227.22 227.22 0 0 0-15.35-22.04 152.6 152.6 0 0 0-18.71-19.8 127.6 127.6 0 0 0-22.47-15.71c-2.02-1.1-4.02-2.22-6.1-3.16l-3.1-1.49c-1.03-.5-2.11-.9-3.16-1.36l-3.18-1.34c-1.04-.43-2.14-.82-3.2-1.23-2.15-.8-4.28-1.65-6.45-2.38a465.52 465.52 0 0 0-26.06-8.27c-17.39-5.05-34.65-9.75-50.78-16.03a204.86 204.86 0 0 1-23.12-10.7c-1.8-1.04-3.63-1.97-5.4-3.07-1.73-1.12-3.53-2.13-5.15-3.38l-2.48-1.78c-.8-.61-1.57-1.28-2.36-1.91-.77-.65-1.58-1.25-2.3-1.94l-2.2-2.03c-5.82-5.44-10.66-11.53-14.93-17.65a265.2 265.2 0 0 1-11.44-18.29l-5.07-8.78c-1.64-2.87-3.3-5.61-4.82-8.41-2.92-5.6-5.4-11.02-7.93-16.03-5-10.03-9.9-18.54-14.95-24.8a44.1 44.1 0 0 0-7.58-7.54 20.77 20.77 0 0 0-7-3.59l-.76-.21-.73-.12c-.47-.06-.9-.16-1.3-.19-.83 0-1.52-.07-2.08-.01-1.12.1-1.69.17-1.69.17z" opacity=".5"/><path fill="#A06E1C" d="M190.86 73.54l1.26-1.01 1.55-1.24c.62-.49 1.37-1 2.2-1.61a54.65 54.65 0 0 1 15.96-8 40.42 40.42 0 0 1 12.68-1.63c2.35.02 4.76.38 7.24.84 2.47.55 5 1.25 7.52 2.24 2.51.99 5.06 2.14 7.56 3.56a73.7 73.7 0 0 1 7.47 4.73c4.93 3.52 9.69 7.77 14.4 12.43 9.4 9.35 18.4 20.56 27.56 32.62 9.19 12.04 18.42 25.09 28.92 37.8 5.28 6.32 10.87 12.62 17.37 18.02a60.1 60.1 0 0 0 5.08 3.8c1.76 1.16 3.6 2.3 5.41 3.45a611.96 611.96 0 0 0 11.05 6.73c14.9 8.85 30.4 17.26 45.6 26.19 15.2 8.92 30.14 18.4 43.67 29.32a198.4 198.4 0 0 1 19.07 17.41 166.65 166.65 0 0 1 16 19.48l1.77 2.55c.57.85 1.12 1.73 1.68 2.59l1.66 2.58 1.53 2.65 3.03 5.25c.52.85.97 1.76 1.42 2.65l1.35 2.69c.88 1.79 1.83 3.53 2.64 5.33l2.31 5.4 1.15 2.69c.37.9.65 1.82.98 2.72l1.91 5.4c4.9 14.42 6.67 28.87 7.21 42.05.24 3.29.43 6.52.69 9.67l1.17 9.15c.16 1.5.44 2.95.67 4.4l.71 4.27.7 4.15.8 4.01 1.5 7.64 1.5 7.1 2.64 12.48c1.53 7.56 2.73 13.5 3.36 17.58l1.04 6.25-1.13-6.23c-.68-4.07-1.97-10-3.6-17.52l-2.82-12.46-1.6-7.07-1.62-7.62-.85-4-.76-4.16-.78-4.28c-.25-1.44-.55-2.9-.73-4.4l-1.2-9.22c-.26-3.15-.45-6.38-.69-9.68l-.66-10.08c-.06-1.71-.38-3.42-.59-5.15l-.7-5.23c-.1-.88-.3-1.75-.47-2.63l-.55-2.64-1.1-5.34-1.48-5.34-.75-2.7c-.13-.45-.24-.9-.39-1.35l-.47-1.33-1.9-5.37c-.32-.9-.6-1.82-.97-2.7l-1.14-2.67-2.3-5.37c-.8-1.79-1.75-3.52-2.62-5.3l-1.34-2.65c-.44-.9-.88-1.79-1.4-2.65l-3.04-5.24-1.52-2.62-1.65-2.57c-.55-.86-1.1-1.73-1.66-2.58l-1.76-2.53a165.8 165.8 0 0 0-15.9-19.36 197.5 197.5 0 0 0-18.98-17.32c-13.47-10.89-28.37-20.34-43.55-29.25-15.19-8.91-30.68-17.32-45.6-26.19a606.2 606.2 0 0 1-11.08-6.74c-1.81-1.16-3.63-2.27-5.42-3.47-1.81-1.18-3.51-2.5-5.16-3.85-6.6-5.48-12.2-11.8-17.51-18.15-10.54-12.77-19.77-25.81-28.95-37.84-9.14-12.05-18.13-23.22-27.47-32.52a122.74 122.74 0 0 0-14.28-12.33 73 73 0 0 0-7.31-4.78 58.1 58.1 0 0 0-7.4-3.62 50.18 50.18 0 0 0-7.38-2.3 42 42 0 0 0-7.13-.94 39.98 39.98 0 0 0-12.56 1.43 54.43 54.43 0 0 0-16 7.74c-.84.6-1.6 1.1-2.23 1.57l-1.56 1.22c-.88.62-1.32.96-1.32.96zM243.05 48.13l3.82.45c2.49.32 6.12 1 10.64 2.25a106.57 106.57 0 0 1 15.78 6.11c1.46.74 2.99 1.47 4.52 2.28 1.52.84 3.1 1.68 4.7 2.6 1.56.96 3.19 1.9 4.8 2.96 1.6 1.07 3.27 2.11 4.92 3.28 6.62 4.56 13.53 9.9 20.57 15.83 3.55 2.94 7.06 6.13 10.43 9.64 3.3 3.56 6.51 7.34 9.55 11.35 6.12 7.99 11.78 16.7 18 25.18 3.12 4.23 6.39 8.4 9.91 12.37 3.56 3.96 7.43 7.58 11.47 11.12a503.56 503.56 0 0 0 24.74 20.15l24.6 18.77a474.05 474.05 0 0 1 22.48 18.26 243.37 243.37 0 0 1 18.71 18l2.03 2.2 1.94 2.19a97.32 97.32 0 0 1 3.63 4.3 113 113 0 0 1 3.3 4.24l1.54 2.05 1.44 2.03c3.78 5.33 6.78 10.2 9.04 14.3.57 1.02 1.12 1.99 1.6 2.9l1.34 2.62 1.15 2.25.88 1.9 1.62 3.5-1.7-3.46-.93-1.88-1.2-2.22-1.38-2.57c-.52-.91-1.09-1.86-1.68-2.87a150 150 0 0 0-9.34-14.03l-1.48-2-1.58-2a111.29 111.29 0 0 0-3.37-4.13l-1.78-2.12-1.87-2.14-1.9-2.2-2.03-2.17a242.24 242.24 0 0 0-18.64-17.93 472.01 472.01 0 0 0-22.43-18.23l-24.6-18.77a503.63 503.63 0 0 1-24.8-20.19 136.3 136.3 0 0 1-11.54-11.2c-3.56-4-6.84-8.2-9.98-12.44-6.24-8.52-11.9-17.22-17.98-25.17-3.03-4-6.22-7.74-9.49-11.27-3.31-3.45-6.8-6.64-10.34-9.56a268.06 268.06 0 0 0-20.5-15.77c-3.3-2.28-6.55-4.31-9.67-6.21-1.55-.95-3.1-1.82-4.6-2.7-1.5-.84-3-1.6-4.43-2.36a106.18 106.18 0 0 0-15.55-6.45 78.6 78.6 0 0 0-10.55-2.5l-3.81-.5z" opacity=".5"/><path fill="#A06E1C" d="M206.06 84.75l1.1-.2c.74-.13 1.8-.4 3.25-.49a32.6 32.6 0 0 1 12.35 1.16c5.21 1.4 11.12 4.5 17.04 9.12a89.9 89.9 0 0 1 8.82 8.06c2.91 3.04 5.75 6.44 8.57 10.09 5.63 7.3 11.07 15.69 16.43 24.77 2.66 4.56 5.45 9.18 7.99 14.13 2.54 4.93 4.93 10.05 7.67 15.07 2.75 5.01 5.88 9.96 9.9 14.21.52.52 1 1.07 1.55 1.57l1.62 1.49c1.1.9 2.34 1.81 3.5 2.72 1.16.97 2.47 1.67 3.71 2.48l1.89 1.18 1.98 1.06c5.26 2.89 10.89 5.17 16.53 7.5l4.23 1.78a97.44 97.44 0 0 1 4.21 1.85c2.8 1.27 5.56 2.58 8.34 3.9 11.09 5.18 22.4 9.9 33.46 14.74 11.06 4.82 21.9 9.74 32.05 15.17 10.16 5.42 19.62 11.36 27.94 17.88 2.07 1.64 4.16 3.2 6.03 4.97l2.84 2.56c.94.84 1.9 1.66 2.73 2.58l5.1 5.27c1.56 1.83 3.05 3.66 4.53 5.43a241 241 0 0 1 14.37 20.6c4.09 6.27 7.38 11.88 10.2 16.45l8.78 14.38-9.08-14.2c-2.9-4.5-6.31-10.06-10.51-16.22l-3.2-4.8c-.56-.82-1.1-1.67-1.7-2.5l-1.83-2.5-3.77-5.22c-1.3-1.78-2.53-3.65-4.04-5.37-1.47-1.75-2.95-3.57-4.5-5.38l-5.05-5.23c-.83-.9-1.77-1.72-2.7-2.56l-2.83-2.54c-1.85-1.75-3.93-3.3-5.98-4.94-8.27-6.47-17.68-12.38-27.8-17.78-10.12-5.4-20.93-10.32-31.98-15.14s-22.37-9.56-33.49-14.75c-2.77-1.3-5.55-2.63-8.32-3.89a98.22 98.22 0 0 0-4.19-1.84l-4.22-1.77c-5.64-2.33-11.3-4.63-16.63-7.54l-2-1.08-1.94-1.21c-1.27-.83-2.62-1.56-3.76-2.52-1.2-.93-2.37-1.78-3.56-2.77l-1.66-1.52c-.55-.5-1.05-1.07-1.57-1.6-4.12-4.35-7.29-9.37-10.06-14.42-2.76-5.06-5.15-10.19-7.68-15.09-2.5-4.9-5.31-9.54-7.96-14.08-5.35-9.07-10.77-17.41-16.37-24.67a136.36 136.36 0 0 0-8.5-10.02 89.18 89.18 0 0 0-8.56-8.16c-5.76-4.69-11.54-7.87-16.67-9.37a32.4 32.4 0 0 0-12.24-1.4c-1.44.05-2.52.31-3.25.42l-1.12.16zM290.76 51.87l3.15 1.02c2.06.68 5.11 1.53 8.83 3.14 3.8 1.42 8.22 3.54 13.26 6.06 2.45 1.38 5.12 2.76 7.84 4.36l4.12 2.6c1.4.88 2.84 1.77 4.25 2.78 2.85 1.98 5.86 3.97 8.83 6.24l4.57 3.4 4.62 3.62c3.15 2.42 6.25 5.06 9.49 7.68 3.17 2.7 6.45 5.42 9.71 8.25l20.17 17.45 5.2 4.42 5.28 4.39c3.53 2.92 7.24 5.69 10.77 8.66l2.67 2.2c.88.74 1.8 1.44 2.63 2.25l5.1 4.7c.86.77 1.64 1.6 2.45 2.43l2.4 2.47 2.4 2.45c.77.84 1.51 1.7 2.27 2.55 6.16 6.71 11.6 13.85 16.73 20.81 2.5 3.53 5 7 7.28 10.48 2.35 3.44 4.53 6.88 6.66 10.23 2.15 3.33 4.13 6.65 6.1 9.81l5.55 9.26c1.75 2.99 3.47 5.82 5.03 8.56l4.42 7.8 7.23 12.63c2 3.5 3.64 6.22 4.73 8.08l1.69 2.85-1.77-2.8c-1.14-1.84-2.85-4.5-4.95-7.96l-7.57-12.43c-2.91-4.81-6.19-10.24-9.67-16.22l-5.54-9.25c-1.97-3.16-3.95-6.47-6.09-9.8-2.13-3.34-4.3-6.77-6.65-10.2-2.28-3.48-4.76-6.93-7.26-10.45-5.12-6.94-10.53-14.05-16.66-20.73-6.1-6.7-12.58-13.21-19.82-18.95-3.52-2.97-7.2-5.72-10.76-8.66l-5.3-4.4-5.2-4.42-20.17-17.45c-3.26-2.83-6.53-5.55-9.7-8.24-3.23-2.61-6.33-5.25-9.47-7.67l-4.6-3.61-4.56-3.38c-2.96-2.27-5.97-4.24-8.8-6.22-1.4-1-2.84-1.89-4.24-2.76l-4.08-2.6c-2.67-1.66-5.28-3.11-7.69-4.55-4.94-2.65-9.3-4.89-13.03-6.4-3.65-1.7-6.7-2.64-8.73-3.38-2.04-.76-3.13-1.14-3.13-1.14zM116.51 129.79l-1.35 1.6-1.63 1.92c-.65.75-1.26 1.71-2.02 2.73l-1.18 1.63c-.4.56-.77 1.21-1.18 1.86-.8 1.3-1.73 2.67-2.53 4.26-.82 1.56-1.76 3.2-2.55 5.02l-1.34 2.74c-.44.94-.85 1.93-1.28 2.92a137.73 137.73 0 0 0-4.85 13.2c-1.5 4.77-2.86 9.87-4.16 15.17a634.2 634.2 0 0 0-3.64 16.43 1472.5 1472.5 0 0 1-3.65 17.02c-1.27 5.7-2.44 11.4-3.63 17l-1.55 8.38-.76 4.12-.57 4.08-1.09 7.96c-.32 2.61-.62 5.17-1 7.66l-2.11 13.96c-.32 2.16-.56 4.24-.81 6.2-.15.99-.25 1.95-.36 2.89a60.08 60.08 0 0 0-.27 2.72c-.18 1.77-.24 3.42-.33 4.95 0 1.53-.08 2.94 0 4.21l.05 1.8c.03.57.09 1.1.13 1.6.08.98.15 1.82.26 2.5l.3 2.06-.38-2.05c-.15-.67-.26-1.51-.38-2.5-.06-.49-.14-1.02-.2-1.58l-.13-1.81c-.12-1.28-.11-2.7-.17-4.24.02-1.54.01-3.2.11-4.99.03-.9.09-1.8.16-2.75s.13-1.92.23-2.91c.19-2 .5-4.07.8-6.24l2.12-13.96c.37-2.47.67-5.02.99-7.63l1.09-8 .57-4.1.76-4.12 1.55-8.4c1.2-5.62 2.38-11.33 3.64-17.02a1476.02 1476.02 0 0 0 3.65-17.01 639.28 639.28 0 0 1 3.65-16.47c1.3-5.32 2.66-10.44 4.17-15.23 1.53-4.78 3.12-9.27 4.89-13.3a72.28 72.28 0 0 1 5.45-10.66c.86-1.56 1.87-2.9 2.72-4.18.45-.63.84-1.26 1.28-1.82l1.25-1.59c.8-.99 1.47-1.92 2.15-2.64l1.7-1.85c.92-1.02 1.42-1.55 1.42-1.55z" opacity=".5"/><path fill="#A06E1C" d="M216.71 95.56l1.72 1.62c1.1 1.07 2.74 2.63 4.82 4.62 1.04 1 2.19 2.1 3.4 3.35 1.23 1.23 2.56 2.55 3.91 4.04 2.8 2.89 5.7 6.39 8.57 10.43.75 1 1.4 2.08 2.12 3.15.69 1.09 1.46 2.15 2.1 3.33 1.34 2.3 2.76 4.69 4.02 7.22 2.6 5.02 5.08 10.48 7.65 16.07a197.06 197.06 0 0 0 8.58 16.9l1.25 2.07c.42.7.82 1.37 1.3 2.04l2.77 4.04c.89 1.38 1.92 2.64 2.92 3.93 1.02 1.28 1.99 2.6 3.03 3.85l3.25 3.69c.54.61 1.07 1.23 1.63 1.83l1.72 1.74 3.43 3.48 3.6 3.26 1.8 1.62c.6.53 1.23 1.01 1.85 1.52l3.7 3.01c1.23.99 2.53 1.88 3.78 2.8 1.28.9 2.48 1.89 3.78 2.7 2.59 1.67 5.05 3.42 7.63 4.88l3.78 2.24c1.25.72 2.52 1.36 3.76 2.03 1.25.66 2.46 1.33 3.69 1.95l3.64 1.75c1.2.56 2.36 1.17 3.54 1.66l3.46 1.49c1.13.47 2.22.98 3.33 1.4 1.1.4 2.17.83 3.2 1.24l3.05 1.23 2.9 1.06c1.89.66 3.63 1.35 5.29 1.86l4.53 1.45c2.74.9 4.94 1.42 6.42 1.86l2.27.63-2.3-.55c-1.49-.38-3.71-.82-6.48-1.6l-4.6-1.28c-1.68-.45-3.45-1.08-5.37-1.67l-2.96-.95-3.1-1.12c-1.05-.39-2.13-.8-3.23-1.23-1.1-.42-2.2-.93-3.35-1.41l-3.47-1.5c-1.2-.5-2.35-1.1-3.56-1.67l-3.67-1.75c-1.23-.62-2.45-1.3-3.7-1.96-1.25-.68-2.53-1.33-3.79-2.05l-3.8-2.25c-2.6-1.47-5.07-3.23-7.67-4.9-1.31-.83-2.52-1.81-3.8-2.72-1.27-.94-2.57-1.83-3.82-2.83l-3.72-3.03c-.62-.5-1.27-1-1.87-1.53l-1.8-1.64-3.63-3.28-3.46-3.5-1.73-1.75c-.56-.6-1.1-1.23-1.65-1.85l-3.27-3.71a129.7 129.7 0 0 1-11.36-16.08 198.03 198.03 0 0 1-8.63-16.98c-2.58-5.61-5.03-11.02-7.63-16.03-1.26-2.54-2.65-4.87-3.98-7.17-.64-1.16-1.4-2.21-2.1-3.29-.7-1.06-1.35-2.14-2.09-3.12-1.46-1.97-2.83-3.88-4.27-5.6l-2.02-2.56-2.02-2.35c-1.28-1.53-2.56-2.9-3.74-4.17a145.53 145.53 0 0 0-3.26-3.47l-4.64-4.8-1.65-1.7zM340.33 89.42l.64 1.75.76 2.11 1.28 2.74c.44 1.05 1.1 2.12 1.76 3.31.64 1.2 1.46 2.43 2.34 3.74.83 1.34 1.89 2.65 2.94 4.07.5.72 1.1 1.4 1.66 2.14.57.73 1.15 1.48 1.77 2.23 2.53 2.94 5.37 6.04 8.57 9.14a230.51 230.51 0 0 0 10.37 9.43c3.7 3.16 7.59 6.35 11.53 9.62l12.02 9.8c2.02 1.63 4.02 3.29 6.05 4.89l6.1 4.73 6 4.65c1.98 1.52 3.97 3.05 5.84 4.6l2.81 2.29c.93.75 1.78 1.6 2.66 2.39l2.57 2.37c.84.79 1.6 1.63 2.4 2.42 1.56 1.6 3.1 3.15 4.48 4.74 1.4 1.58 2.79 3.07 4.03 4.57 1.25 1.5 2.5 2.9 3.6 4.29l3.11 3.98 5.03 6.48 4.44 5.6-4.7-5.38-5.34-6.23c-2.07-2.4-4.4-5.1-6.9-8.09-1.24-1.5-2.62-2.97-4.01-4.54-1.38-1.59-2.9-3.13-4.46-4.72-.78-.78-1.54-1.62-2.38-2.4l-2.54-2.34c-.87-.78-1.69-1.62-2.62-2.37l-2.81-2.28c-1.88-1.56-3.82-3.05-5.81-4.6l-6.02-4.65-6.11-4.73c-2.04-1.6-4.04-3.27-6.06-4.9l-12.02-9.8c-3.94-3.26-7.83-6.46-11.54-9.64a231.03 231.03 0 0 1-10.42-9.46 135.38 135.38 0 0 1-8.64-9.22c-1.2-1.54-2.45-2.95-3.47-4.42-.99-1.5-1.99-2.86-2.77-4.25-.82-1.37-1.59-2.64-2.17-3.9-.61-1.23-1.22-2.34-1.62-3.41l-1.14-2.83-.66-2.14a83.01 83.01 0 0 1-.58-1.79zM499.23 271.51l2.37 5.47 3.1 6.08 1.98 3.71c.7 1.3 1.3 2.76 2 4.24l1.04 2.27c.34.78.65 1.58.99 2.39l2.05 5.02 2.06 5.36c.7 1.84 1.33 3.74 2.01 5.65.7 1.92 1.27 3.9 1.9 5.9.64 2 1.25 4.03 1.84 6.08 1.2 4.1 2.43 8.26 3.52 12.46.51 2.11 1.07 4.22 1.54 6.33l1.19 6.36c.59 4.26 1 8.41 1.49 12.45.27 2.02.37 4.02.52 5.97l.41 5.73.76 10.47c.1 1.62.25 3.17.32 4.65.08 1.48.1 2.89.24 4.2l.6 6.8.5 5.94-.87-5.9-.98-6.77c-.37-2.63-.6-5.6-.81-8.84l-.76-10.47a17373 17373 0 0 1-.4-5.7c-.16-1.95-.25-3.94-.53-5.96-.48-4.02-.9-8.23-1.48-12.41l-1.18-6.3c-.47-2.1-1.02-4.2-1.52-6.3-1.1-4.18-2.31-8.33-3.51-12.43a247.78 247.78 0 0 0-1.84-6.06c-.63-1.99-1.2-3.97-1.9-5.87-.68-1.9-1.3-3.8-2-5.63l-2.05-5.33-2.05-5.02c-.33-.8-.64-1.62-.98-2.38l-1.04-2.25-3.74-8.03-2.78-6.27-2.04-5.64zM499.23 336.89l.71 2.8.79 3.23c.3 1.25.67 2.65 1 4.18l1.16 4.93c.43 1.74.96 3.57 1.46 5.47a209.91 209.91 0 0 0 1.64 5.84c.57 2 1.18 3.99 1.72 6.03l1.65 6.05 1.51 5.89c.49 1.9.95 3.76 1.45 5.48l1.37 4.9 2.1 7.3.77 2.78-1.13-2.66-1.27-3.08-.78-1.9c-.3-.66-.41-1.41-.65-2.17l-1.38-4.9c-.5-1.75-.96-3.6-1.45-5.5l-1.5-5.87-1.65-6.05c-.53-2.02-1.16-4.04-1.72-6.03a210.99 210.99 0 0 1-1.64-5.85c-.51-1.9-1.04-3.74-1.47-5.5l-1.17-4.97c-.16-.77-.39-1.5-.51-2.2l-.26-2.03-.42-3.3-.34-2.87zM257.84 63.96l2.21.76 2.66.9 3.54 1.43c1.34.5 2.75 1.21 4.3 1.94 1.59.7 3.21 1.61 4.97 2.56l1.33.72 1.34.82 2.79 1.7c.92.62 1.86 1.29 2.8 1.97l1.46 1.04 1.43 1.13c7.8 5.97 15.86 14.2 23.32 23.9 1.85 2.45 3.7 4.95 5.49 7.54 1.8 2.58 3.53 5.25 5.33 7.9 1.81 2.64 3.56 5.37 5.45 8l5.71 7.87 6 7.67c2.07 2.49 4.18 4.92 6.25 7.36 4.27 4.75 8.58 9.35 13.03 13.5 1.1 1.05 2.14 2.15 3.28 3.12l3.35 2.92 3.28 2.85c1.07.96 2.23 1.77 3.31 2.65l6.42 5c2.12 1.56 4.14 3.13 6.07 4.62 3.9 2.94 7.4 5.7 10.61 8.02a90.62 90.62 0 0 0 8.6 5.55c2.48 1.42 4.55 2.27 5.95 2.85l2.21.77-2.24-.68c-1.43-.53-3.54-1.3-6.07-2.63a90.83 90.83 0 0 1-8.87-5.25c-1.66-1.1-3.4-2.31-5.21-3.6-1.8-1.3-3.65-2.76-5.6-4.24-1.93-1.49-3.93-3.04-6.04-4.61l-6.45-5.02c-1.1-.88-2.26-1.7-3.33-2.66l-3.3-2.87-3.36-2.93c-1.14-.97-2.19-2.08-3.3-3.13a221.1 221.1 0 0 1-13.1-13.57c-2.07-2.45-4.19-4.9-6.27-7.39l-6.02-7.7c-1.94-2.62-3.83-5.28-5.74-7.91-1.9-2.64-3.64-5.36-5.45-8-1.8-2.65-3.53-5.33-5.32-7.89a211.37 211.37 0 0 0-5.46-7.5c-7.42-9.64-15.43-17.81-23.15-23.72a123.33 123.33 0 0 0-10.91-7.52c-1.7-1-3.28-1.98-4.82-2.73-1.52-.79-2.9-1.55-4.21-2.1l-3.47-1.55-2.62-1.02-2.19-.85zM505.25 412.11l1.32 3.58c.2.57.46 1.19.65 1.9l.65 2.29.73 2.61c.2.93.33 1.92.53 2.95.4 2.05.7 4.29 1.02 6.65.33 2.36.6 4.87.9 7.45l.89 7.95c.28 2.72.75 5.41 1.08 8.2l.48 4.12c.17 1.37.18 2.77.27 4.14l.1 2.05c.03.67.02 1.35.03 2.02l.03 3.97-.15 7.49c-.06 2.38-.1 4.63-.1 6.7 0 2.07-.03 3.97-.06 5.65l-.04 2.37.07 2 .13 3.8-.5-3.78-.25-2-.16-2.36-.2-2.7c-.05-.95.01-1.94 0-2.99 0-2.08.05-4.33.11-6.71l.15-7.48-.03-3.95c0-.66 0-1.33-.02-2l-.1-2.02c-.1-1.35-.1-2.71-.27-4.08l-.48-4.12c-.33-2.72-.81-5.5-1.09-8.2l-.9-7.96c-.29-2.58-.55-5.08-.88-7.43-.33-2.35-.61-4.58-1.01-6.6-.38-2.04-.69-3.91-1.02-5.55l-.44-2.32c-.13-.72-.35-1.36-.49-1.95l-.94-3.68zM165.33 216.92l-.78 4.09c-.27 1.3-.5 2.89-.83 4.7a143.72 143.72 0 0 0-.47 2.9c-.17 1.01-.41 2.07-.62 3.18-.45 2.23-.9 4.64-1.43 7.2-.5 2.54-1.13 5.22-1.78 7.99-.72 2.75-1.45 5.6-2.41 8.44-.89 2.87-1.98 5.67-3.04 8.52a135.39 135.39 0 0 1-3.53 8.34 89.2 89.2 0 0 1-4.08 7.79 60.79 60.79 0 0 1-4.68 6.78l-1.22 1.5-1.28 1.39c-.43.44-.81.91-1.25 1.32l-1.3 1.19a21.94 21.94 0 0 1-2.53 2.1l-1.25.88-1.25.73c-1.57 1-3.08 1.61-4.28 2.18-.6.3-1.17.45-1.66.63l-1.24.41-1.03.35 1-.44c.63-.31 1.61-.66 2.77-1.3 1.15-.64 2.57-1.36 4.04-2.46l1.16-.8 1.14-.97c.79-.64 1.67-1.26 2.46-2.06l1.26-1.16c.44-.4.81-.85 1.23-1.29l1.26-1.35 1.2-1.48a59.69 59.69 0 0 0 4.6-6.66c1.41-2.44 2.8-5 4.02-7.7 1.27-2.68 2.4-5.48 3.5-8.28 1.05-2.82 2.16-5.66 3.02-8.48.96-2.8 1.68-5.63 2.4-8.36.65-2.75 1.26-5.42 1.77-7.96.53-2.54.98-4.96 1.42-7.18.23-1.11.41-2.19.64-3.2.23-1 .47-1.96.7-2.85.46-1.8.82-3.36 1.2-4.63l1.16-4.01zM46.4 275.18l-.62 1.9-.75 2.28c-.32.9-.51 1.96-.82 3.13a90.84 90.84 0 0 0-1.7 8.58c-.48 3.35-.92 7.13-1.34 11.26-.38 4.14-.64 8.64-.78 13.41-.04 2.34 0 4.85.3 7.28.23 2.47.63 5 .93 7.6.33 2.57.71 5.2 1.11 7.85l.78 3.95.4 1.98.46 2 .95 4 1.05 4c.68 2.67 1.45 5.35 2.17 8.03 1.46 5.36 2.97 10.72 4.13 16.1 1.26 5.34 2.03 10.7 2.69 15.87.65 5.18 1.22 10.18 1.92 14.9.7 4.71 1.5 9.14 2.6 13.14.46 2.03 1.17 3.88 1.7 5.7.29.9.64 1.74.94 2.58.33.83.59 1.67.97 2.42a46.92 46.92 0 0 0 4.2 7.63l1.88 2.63 1.6 1.79 1.32 1.5-1.4-1.44-1.67-1.72-2.02-2.56a47.63 47.63 0 0 1-4.58-7.52c-.42-.75-.72-1.58-1.09-2.4-.34-.84-.74-1.7-1.07-2.59-.61-1.81-1.26-3.72-1.75-5.76-1.1-4.05-1.92-8.52-2.62-13.26-.7-4.73-1.27-9.74-1.92-14.9a154.15 154.15 0 0 0-2.68-15.8c-1.15-5.33-2.66-10.68-4.1-16.05-.74-2.68-1.5-5.35-2.2-8.04l-1.04-4.01-.95-4.02-.48-2-.4-2.01-.78-4a350.85 350.85 0 0 1-1.1-7.87c-.3-2.58-.7-5.1-.95-7.63-.3-2.55-.34-4.96-.3-7.4.14-4.78.4-9.3.78-13.47.17-2.08.43-4.07.66-5.96.28-1.89.64-3.67.93-5.34a91.4 91.4 0 0 1 2.11-8.54c.37-1.17.61-2.23.97-3.1l.85-2.25.7-1.9zM103.46 388.86l1.2 6.38 1.34 7.34 1.45 9.55c.57 3.49 1.1 7.28 2.04 11.2 1 3.9 2.23 8 3.48 12.24l3.93 13.07c1.32 4.46 2.7 8.97 3.86 13.58.26 1.18.5 2.3.86 3.4a91.63 91.63 0 0 0 1.13 3.32 281.2 281.2 0 0 0 2.44 6.56 532.56 532.56 0 0 0 5.09 12.65c3.4 8.16 6.74 15.71 9.77 22.1 1.54 3.18 2.83 6.16 4.1 8.73a143.46 143.46 0 0 0 3.42 6.6 56.12 56.12 0 0 0 2.48 4.1c.63.9 1 1.37 1 1.37s-.39-.44-1.06-1.32a56.38 56.38 0 0 1-2.69-3.98 143.8 143.8 0 0 1-3.74-6.46c-1.36-2.54-2.94-5.39-4.42-8.6a532.47 532.47 0 0 1-9.79-22.16 531.99 531.99 0 0 1-5.1-12.67 280.59 280.59 0 0 1-2.45-6.58 93.53 93.53 0 0 1-1.14-3.37c-.38-1.14-.63-2.34-.87-3.46-1.15-4.55-2.53-9.07-3.85-13.52l-3.93-13.07c-1.26-4.25-2.48-8.34-3.5-12.3-.96-3.97-1.48-7.79-2.06-11.28-.52-3.5-1.04-6.71-1.43-9.56l-.83-7.4-.74-6.44zM115.59 513.13l.17.36c.12.24.27.6.53 1.05.47.9 1.24 2.2 2.28 3.8 1.02 1.61 2.34 3.53 3.89 5.7l2.5 3.42c.86 1.22 1.74 2.51 2.72 3.83a373.56 373.56 0 0 0 6.34 8.47c2.28 2.99 4.73 6.1 7.3 9.3a660.07 660.07 0 0 0 7.98 9.8 882.4 882.4 0 0 0 8.38 10l4.3 4.94 4.34 4.84a669.14 669.14 0 0 0 8.6 9.26 581.55 581.55 0 0 0 8.21 8.49c1.34 1.32 2.62 2.63 3.9 3.82a81.6 81.6 0 0 0 3.86 3.3c2.52 2.07 4.94 3.87 7.07 5.47l5.53 4.14c1.51 1.17 2.71 2.08 3.5 2.74l1.23.98-1.27-.93c-.82-.61-2.06-1.47-3.62-2.56l-5.69-3.93c-2.2-1.52-4.67-3.22-7.31-5.2-1.35-1-2.66-2.04-3.99-3.27-1.3-1.23-2.58-2.53-3.92-3.86a583.97 583.97 0 0 1-16.85-17.78l-4.35-4.85-4.3-4.95a898.58 898.58 0 0 1-8.4-10.01 656.75 656.75 0 0 1-7.99-9.81 537.92 537.92 0 0 1-7.3-9.32 370.84 370.84 0 0 1-6.36-8.5 238.54 238.54 0 0 1-2.75-3.83c-.86-1.22-1.6-2.44-2.33-3.56a133.5 133.5 0 0 1-3.57-5.93 46.65 46.65 0 0 1-2.04-3.96c-.22-.47-.35-.84-.45-1.09l-.15-.39z" opacity=".5"/><path fill="#A06E1C" d="M195.15 80.39l1.26-1.24 1.33-1.18a36 36 0 0 1 2.84-2.13 35.89 35.89 0 0 1 3.07-1.8 37.58 37.58 0 0 1 3.24-1.48l1.68-.6 1.7-.53 1.74-.44 1.75-.36 1.77-.27 1.78-.2a47.94 47.94 0 0 1 3.57-.17 46.34 46.34 0 0 1 7.13.62 62.27 62.27 0 0 1 3.5.68c1.17.27 2.32.57 3.46.9 1.14.35 2.27.73 3.4 1.13 1.1.42 2.21.86 3.3 1.34a66.53 66.53 0 0 1 3.23 1.53 64.61 64.61 0 0 1 3.13 1.74l.04.02.03.03a94.02 94.02 0 0 1 7.54 7.73c2.37 2.7 4.55 5.57 6.64 8.49a184.39 184.39 0 0 1 11.28 18.32c3.45 6.28 6.68 12.67 10.01 19 3.36 6.3 6.79 12.59 10.96 18.35 2.1 2.88 4.39 5.6 7 7.98 2.66 2.34 5.44 4.63 8.15 6.96l4.1 3.47 4.15 3.39 4.15 3.38 4.24 3.29a168.63 168.63 0 0 0 4.27 3.24l2.15 1.6c.73.57 1.4 1 2.2 1.41 3.13 1.65 6.35 3.25 9.53 4.88 3.19 1.63 6.37 3.28 9.49 5.05a82.67 82.67 0 0 1 4.6 2.79c1.47 1 2.97 2.03 4.16 3.37a21.52 21.52 0 0 0-4.27-3.21 82.18 82.18 0 0 0-4.67-2.62c-3.17-1.66-6.4-3.2-9.64-4.7-3.23-1.54-6.52-2.95-9.7-4.67a26.04 26.04 0 0 1-1.19-.7c-.38-.25-.76-.54-1.1-.8l-2.16-1.6a169.52 169.52 0 0 1-4.28-3.25l-4.25-3.3-4.17-3.4-4.16-3.39-4.1-3.47c-2.72-2.33-5.46-4.6-8.17-6.98a53.14 53.14 0 0 1-7.14-8.13c-4.23-5.84-7.67-12.16-11.03-18.48-3.35-6.33-6.57-12.72-10-18.98a183.57 183.57 0 0 0-11.23-18.22c-2.07-2.9-4.23-5.74-6.58-8.42a92.88 92.88 0 0 0-7.45-7.63l.08.05a66.52 66.52 0 0 0-3.07-1.7 66.51 66.51 0 0 0-3.17-1.5 66.46 66.46 0 0 0-3.25-1.32 66.58 66.58 0 0 0-3.33-1.1 64.17 64.17 0 0 0-3.4-.9 62.04 62.04 0 0 0-3.44-.66 52.15 52.15 0 0 0-3.48-.43 65.92 65.92 0 0 0-3.5-.17l-1.75-.01-1.75.05-1.75.14-1.74.2-1.73.3-1.72.36-1.7.46-1.66.54c-1.1.4-2.2.84-3.26 1.34a35.35 35.35 0 0 0-3.1 1.68 36.2 36.2 0 0 0-2.9 2.01l-1.35 1.13-1.31 1.18z" opacity=".5"/><path fill="#F5A19C" d="M339.27 465.42c7.45 2 2.94 12.22-9.96 16.23-12.9 4-31.6 7.05-43.3-6.74-2.07-2.46-.93-10.88 5.68-10.58 5.58.26 15.8 7.28 19.23 7.59s20.9-8.5 28.35-6.5z"/><path fill="#1C1001" d="M275.43 263.55l10.65 15.69s-49.32-16.75-76.63-10.64c-27.31 6.1-63.44 24.1-63.44 24.1l-2.53-2.94s54.2-32.23 72.12-30.15c20.55-1.65 59.83 3.94 59.83 3.94z"/><path fill="#BF1F25" d="M333.09 370.4s-19.8-10.6-29.58-8.36c.25-2.31.22-9 .22-9s22.35 5.48 26.44 7.33c4.08 1.85 2.9 10.02 2.9 10.02z"/><path fill="#FAFCFF" d="M176.57 348.73s7.94-48.65 31.38-50.78c23.43-2.13 47.38 9.03 60.41 28.54 13.03 19.5 27.63 57.99 15.01 69.46-15.06 8.63-51.12 10.15-71.77 2.17-9.94-5.14-35.43-27.61-35.03-49.4z"/><radialGradient id="n" cx="-69.72" cy="364.96" r="39.11" gradientTransform="scale(-1 1) rotate(13 -33.68 -361.45)" gradientUnits="userSpaceOnUse"><stop offset=".33" stop-color="#7C4700"/><stop offset=".62" stop-color="#7A4501"/><stop offset=".77" stop-color="#724004"/><stop offset=".88" stop-color="#653709"/><stop offset=".98" stop-color="#522B0F"/><stop offset="1" stop-color="#4E2811"/></radialGradient><path fill="url(#n)" d="M258 313.95c14.44 13.9 13.44 40.55.33 55-13.87 15.28-39.73 13.32-53.01-2.02-15.6-18.01-12.46-60.45 13.93-68.17 9.3-2.72 20.02 2.16 28.11 6.68 11.83 6.61 16.35 15.9 21.4 28.29"/><path fill="#1C1001" d="M201.77 298.51s-15.54 3.71-32.44.42c-11.4-2.22 13.06 8.3 17.5 7.43s-10.47 6.97-19.94 6.57c-9.47-.4 9.13 3.83 12.98 2.96 8.26-1.88-4.39 7.98-10.18 11.68-3.02 1.92 7.48-2.55 11.95-4.41 4.46-1.86 20.13-24.65 20.13-24.65z"/><circle cx="233.9" cy="340.46" r="24.46" fill="#070707"/><circle cx="222.95" cy="321.3" r="11.1" fill="#FFFEFD"/><path fill="#1C1001" d="M176.42 348.71s.08-.81.3-2.33c.21-1.51.51-3.74 1.1-6.54a134.7 134.7 0 0 1 2.44-10.04c.53-1.93 1.19-3.96 1.9-6.1a80.56 80.56 0 0 1 2.68-6.59c2.07-4.51 4.7-9.34 8.7-13.74 2-2.17 4.4-4.23 7.33-5.72.75-.33 1.5-.7 2.27-1 .8-.23 1.6-.51 2.43-.69.86-.13 1.64-.3 2.57-.38l2.27-.16c.78-.04 1.5-.14 2.32-.13h2.45c1.65-.05 3.25.11 4.87.22 1.64.06 3.25.37 4.88.57.82.1 1.63.27 2.44.45l2.43.52a69.14 69.14 0 0 1 18.68 7.41 68.61 68.61 0 0 1 17.34 14.46l1.58 1.91c1.02 1.3 1.91 2.69 2.87 4.01.49.72.85 1.34 1.28 2.01l1.25 2.06a129.84 129.84 0 0 1 9.65 20.35c2 5.3 3.58 10.43 4.73 15.25a79.34 79.34 0 0 1 1.38 6.98c.28 2.25.52 4.38.57 6.41.18 4.04-.22 7.61-.98 10.44a15.3 15.3 0 0 1-3 6.03c-.48.63-.95 1-1.24 1.28l-.44.41-.2-.22.4-.43c.27-.28.7-.67 1.12-1.3.9-1.2 1.97-3.19 2.57-5.95.61-2.76.86-6.23.5-10.16a73.39 73.39 0 0 0-2.4-13.04c-1.26-4.7-2.96-9.7-5.07-14.86a146.66 146.66 0 0 0-7.6-15.81c-2.95-5.3-6.34-10.65-10.74-15.28a65.7 65.7 0 0 0-15.08-11.95 66.38 66.38 0 0 0-36.41-9l-2.27.12c-.74.05-1.47.2-2.2.3-.72.15-1.42.4-2.13.58-.69.24-1.35.55-2.02.82a24.02 24.02 0 0 0-6.8 5.05c-3.85 4.01-6.56 8.61-8.7 12.96a98.91 98.91 0 0 0-4.97 12.31 134.33 134.33 0 0 0-2.86 9.84c-1.38 5.51-1.9 8.72-1.9 8.72l-.3-.04z"/><path fill="#BF1F25" d="M332.04 357.23c1.82-24.7 9.57-49 9.57-49 20-12 45.33-10.73 67.08-5.11-20.98-5.07-45.13-5.86-64.36 5.73 0 0-7.74 23.89-9.65 48.14-1.15 14.55-.2 29.24 5.78 38.97 15.94 25.96 52.19 51.54 101.22 16.65 2.96-5.45 5.94-12.9 8.6-21.19-2.77 9.03-5.94 17.16-9.1 23.02-49.7 35.3-86.7 9.05-103.06-17.48-6.15-9.95-7.19-24.9-6.09-39.73z"/><path fill="#FAFCFF" d="M436.11 366.09s.77-38.84-17.09-43.84-38.02.24-50.9 13.5c-12.89 13.28-29.7 41.03-21.55 51.72 10.45 8.84 38.19 15.16 55.34 11.92 8.44-2.56 31.4-16.35 34.2-33.3z"/><radialGradient id="o" cx="837.41" cy="55.86" r="30.83" gradientTransform="rotate(23.41 -96.63 -866.39)" gradientUnits="userSpaceOnUse"><stop offset=".33" stop-color="#7C4700"/><stop offset=".62" stop-color="#7A4501"/><stop offset=".77" stop-color="#724004"/><stop offset=".88" stop-color="#653709"/><stop offset=".98" stop-color="#522B0F"/><stop offset="1" stop-color="#4E2811"/></radialGradient><path fill="url(#o)" d="M377.47 328.58c-13.18 8.71-16.2 29.52-8.1 42.6 8.57 13.82 28.9 16 41.39 6 14.66-11.75 18.28-45.1-1.08-54.85-6.83-3.43-15.83-1.18-22.75 1.17-10.11 3.44-14.94 10-20.62 18.88"/><path fill="#1C1001" d="M435.96 366.09l-.14-1.83c-.1-1.2-.32-2.95-.57-5.17a101.72 101.72 0 0 0-3.77-17.93c-1.14-3.56-2.69-7.34-5.05-10.66a16.9 16.9 0 0 0-4.24-4.24c-.43-.24-.84-.52-1.27-.75-.45-.19-.88-.43-1.34-.6-.45-.13-.96-.33-1.37-.43l-1.75-.39c-.58-.12-1.2-.3-1.74-.36l-1.68-.25c-1.1-.2-2.28-.26-3.45-.36a60.2 60.2 0 0 0-7.12-.03c-4.8.27-9.61 1.3-14.18 2.97a49.3 49.3 0 0 0-12.8 6.72c-.99.66-1.85 1.49-2.79 2.21-.91.75-1.74 1.59-2.62 2.37-.39.37-.85.86-1.27 1.28l-1.21 1.28c-.8.87-1.59 1.76-2.35 2.65a140.9 140.9 0 0 0-8.29 10.76 96.9 96.9 0 0 0-6.31 10.43 69.82 69.82 0 0 0-4.09 9.4 25.99 25.99 0 0 0-1.46 7.68c-.04 2.16.32 3.85.78 4.93.19.56.44.93.58 1.2l.23.41-.24.18-.27-.4c-.17-.26-.46-.64-.7-1.2a12.4 12.4 0 0 1-1.19-5.09c-.09-2.26.22-5.01 1.05-8.04.8-3.03 2.06-6.35 3.7-9.83a98.78 98.78 0 0 1 6.05-10.86 116.19 116.19 0 0 1 8.13-11.25c3.05-3.71 6.46-7.41 10.56-10.42a52.25 52.25 0 0 1 28.53-10.26c5.06-.27 10.08.2 14.77 1.31l1.75.43c.59.15 1.14.39 1.72.57.55.23 1.07.52 1.6.78.52.3 1 .64 1.5.96a19.36 19.36 0 0 1 4.64 5 40.53 40.53 0 0 1 4.9 11.42 78.34 78.34 0 0 1 2.08 10.3c.43 3.1.65 5.82.8 8.06.26 4.48.2 7.05.2 7.05l-.34-.03z"/><path fill="#1C1001" d="M423.74 323.56s11.52 5.09 25.1 4.95c9.15-.1-11.32 4.56-14.64 3.26-3.32-1.3 7.13 6.9 14.53 7.94 7.4 1.04-7.63 1.67-10.5.44-6.12-2.63 2.28 6.82 6.24 10.5 2.07 1.93-5.44-3.03-8.64-5.11-3.2-2.08-12.1-21.98-12.1-21.98z"/><path fill="#070707" d="M410.53 359.16a19.28 19.28 0 1 1-35.39-15.31 19.28 19.28 0 0 1 35.39 15.3z"/><path fill="#FFFEFD" d="M412.09 341.69a8.74 8.74 0 0 1-11.5 4.55 8.75 8.75 0 0 1-4.55-11.5 8.74 8.74 0 0 1 11.5-4.55 8.74 8.74 0 0 1 4.55 11.5z"/><radialGradient id="p" cx="322.33" cy="419" r="19.94" gradientUnits="userSpaceOnUse"><stop offset=".01" stop-color="#FF8A92" stop-opacity=".7"/><stop offset=".44" stop-color="#FF8C94" stop-opacity=".4"/><stop offset=".59" stop-color="#FF939A" stop-opacity=".28"/><stop offset=".71" stop-color="#FF9EA5" stop-opacity=".21"/><stop offset=".8" stop-color="#FFAFB5" stop-opacity=".14"/><stop offset=".87" stop-color="#FFC5C9" stop-opacity=".09"/><stop offset=".94" stop-color="#FFE0E2" stop-opacity=".04"/><stop offset="1" stop-color="#fff" stop-opacity="0"/></radialGradient><path fill="url(#p)" d="M297 420.16c.57-6.56 10.54-14.6 24.53-13.37 13.99 1.22 26.7 11.26 26.13 17.82-.58 6.57-13.72 7.5-27.71 6.26-13.98-1.24-23.52-4.16-22.94-10.72z" opacity=".2"/><path fill="none" stroke="#0B0B0B" stroke-miterlimit="10" d="M347.07 423.04s-21.6-31.88-48.18-6.69"/><path fill="#E7AB8B" d="M164.45 429s-12.96 7.68-26.17.74c0 0-53.38-34.43-54.7-75.29-.7-12.21 1.25-44.44 30.9-27.82 17.93 14.84 25.3 22.06 25.47 23.02l24.5 79.35z"/><radialGradient id="q" cx="113.94" cy="360.36" r="21.01" gradientUnits="userSpaceOnUse"><stop offset=".01" stop-color="#FF8A92" stop-opacity=".7"/><stop offset=".44" stop-color="#FF8C94" stop-opacity=".4"/><stop offset=".59" stop-color="#FF939A" stop-opacity=".28"/><stop offset=".71" stop-color="#FF9EA5" stop-opacity=".21"/><stop offset=".8" stop-color="#FFAFB5" stop-opacity=".14"/><stop offset=".87" stop-color="#FFC5C9" stop-opacity=".09"/><stop offset=".94" stop-color="#FFE0E2" stop-opacity=".04"/><stop offset="1" stop-color="#fff" stop-opacity="0"/></radialGradient><path fill="url(#q)" d="M129.79 360.6c-3.14-3.98-7.52-7.94-11.37-11.27-3.58-3.1-7.56-6.47-12-8.15-8.46-3.18-2.81 13.75-1.73 17.19 6.62 20.97 11.35 25.56 11.06 26.49-1.1 3.46-10.8-10.36-12.2-14.42-1.32-3.87-2.75-6.73-3.53-10.17-1.27-5.53-2.61-10.99-1.8-16.59.66-4.73 3.3-10.01 8.94-7.9 4.8 1.8 8.15 6.19 11.37 10 2.12 2.5 4.59 5.4 6.59 7.9a54.43 54.43 0 0 1 4.8 6.81l-.13.11z" opacity=".2"/><path fill="#0A0A0A" d="M129.88 366.88a176.23 176.23 0 0 0-7.48-9.83 103.66 103.66 0 0 0-8.3-9.12 39.58 39.58 0 0 0-4.71-3.92 15.72 15.72 0 0 0-2.64-1.5 5.48 5.48 0 0 0-2.85-.5 2.83 2.83 0 0 0-1.29.51 7.54 7.54 0 0 0-1.06 1.03 10.42 10.42 0 0 0-1.6 2.51 17.08 17.08 0 0 0-1.36 5.88c-.25 4.06.37 8.15 1.27 12.14a86.19 86.19 0 0 0 1.6 5.93 25.5 25.5 0 0 0 2.31 5.61 80.79 80.79 0 0 0 6.85 10.18c2.51 3.24 5.1 6.44 7.82 9.52l-.43-.13c1.44-.34 2.86-.56 4.3-.74a48.77 48.77 0 0 1 4.34-.35c2.9-.08 5.82.08 8.67.61.71.15 1.43.28 2.13.48.7.17 1.4.4 2.08.63.68.25 1.37.5 2.02.8.67.3 1.3.65 1.94 1 .62.37 1.25.74 1.83 1.18.6.4 1.14.9 1.69 1.36.52.5 1.05 1 1.51 1.55.5.53.9 1.13 1.35 1.7l-.08.06c-.46-.55-.88-1.14-1.39-1.64-.48-.54-1.01-1.01-1.55-1.5-.56-.43-1.1-.9-1.7-1.28-.59-.41-1.21-.76-1.84-1.11a26.55 26.55 0 0 0-8.09-2.65 40.09 40.09 0 0 0-8.54-.43 48.27 48.27 0 0 0-4.26.4c-1.4.19-2.83.43-4.19.77l-.25.06-.18-.19c-2.78-3.06-5.46-6.2-7.98-9.49a81.73 81.73 0 0 1-6.92-10.31 25.5 25.5 0 0 1-2.33-5.82 86.77 86.77 0 0 1-1.54-6.02c-.85-4.04-1.45-8.2-1.15-12.37.17-2.08.58-4.17 1.48-6.1a10.98 10.98 0 0 1 1.74-2.65c.18-.2.36-.4.55-.57.18-.17.38-.37.61-.53.46-.33 1-.54 1.56-.61a6.02 6.02 0 0 1 3.15.58 16.33 16.33 0 0 1 2.72 1.57c1.7 1.2 3.24 2.6 4.72 4.04 2.95 2.9 5.63 6.04 8.2 9.26a176.38 176.38 0 0 1 7.35 9.95l-.08.07z" opacity=".8"/><path fill="#835C27" d="M131.49 410.09c.68 5.93 4.27 6.98 9.7 7.5 5.44.54 9.07-1.93 7.73-7.75-1.34-5.82-9.13-7.7-12.2-7-5.34 1.24-5.85 1.78-5.23 7.25z"/><path fill="#878787" d="M135.96 420.67c7.16 3.21 14.81 1.7 17.1-3.37 2.26-5.07-1.7-11.79-8.85-15-7.17-3.22-14.82-1.7-17.1 3.37-2.28 5.08 1.68 11.8 8.84 15zm-3.26-12.5c1.3-2.89 5.66-3.75 9.73-1.92 4.08 1.83 6.33 5.66 5.03 8.54-1.29 2.89-5.64 3.75-9.72 1.92-4.07-1.83-6.33-5.65-5.03-8.54z"/><linearGradient id="r" x1="390.14" x2="317.05" y1="695.45" y2="568.86" gradientUnits="userSpaceOnUse"><stop offset="0" stop-color="#0AABBC"/><stop offset=".09" stop-color="#0797AE"/><stop offset=".2" stop-color="#0485A2"/><stop offset=".34" stop-color="#027999"/><stop offset=".53" stop-color="#007294"/><stop offset="1" stop-color="#007093"/></linearGradient><path fill="url(#r)" stroke="#000" stroke-miterlimit="10" d="M340.67 723.56c6.22 3.54 67.38-111.1 67.38-111.1s-76.02-81.25-64.68-52.52c12.95 32.78-8.91 160.08-2.7 163.62z"/><path fill="#034251" d="M345.48 561.53s49.98 40.56 51.52 50.24c1.55 9.68-56.73 104.12-56.73 104.12s14.2-99.89 5.21-152.24" opacity=".2"/><circle cx="364.5" cy="1003.8" r="4.23" fill="#034251"/><circle cx="360.26" cy="960.69" r="4.23" fill="#034251"/><path stroke="#020202" stroke-miterlimit="10" d="M373.49 947.61c.51 16.67-9.03 30.46-21.3 30.79l-156.3 5.2c-12.28.33-14.41-12.93-14.92-29.6l-9.14-211.55c-.5-16.67-5.79-30.45 6.5-29.24l168.44-5.7c12.27-1.86 24.29 12.93 24.8 29.6l1.92 210.5z"/><path fill="#BF1F25" stroke="#020202" stroke-miterlimit="10" d="M370.2 947.61c.51 16.67-9.03 30.46-21.31 30.79l-151.36 5.2c-12.28.33-16.05 2.49-16.56-14.18l-12.43-242.38c-.5-16.68-.85-15.04 11.43-15.37l165.16-4.15c12.28-.33 22.64 12.93 23.15 29.6l1.92 210.5z"/><path fill="#7C181F" d="M168.94 714.14l3.08-2.24 12.57 270.82-2.71-4.64z"/><path fill="#A89E9E" d="M338.98 746.17l10.08-7.83v9.41l-10.08 3.47zm0 7.14l10.08-3.21v6.32l-10.08 3.47zm0 8.29l10.08-3.21v6.32l-10.08 3.47zm0 8.48l10.08-3.21v6.32l-10.08 3.47zm0 8.67l10.08-3.2v6.32l-10.08 3.47zm0 8.29l10.08-3.2v9.4l-10.08-2.7z"/><path fill="#fff" d="M367.85 920.41c.45 14.69 2.55 53.96-8.56 26.58-26.8-126.06-190.69-208.02-190.69-208.02-.44-14.68-4.1-27 8.07-27.32l167.17-2.57c12.17-.32 22.4 11.32 22.85 26l1.17 185.34z" opacity=".1"/><path fill="#fff" d="M307.24 483.99c-.53 1.16-9.63-.72-14.13-3.53-3.7-2.3-7.67-6.46-7.14-7.62.53-1.16 6.17.5 9.14 3.69 4.6 4.9 12.66 6.3 12.13 7.46z" opacity=".4"/><path fill="#0A0A0A" d="M347.31 466.7c-1.47.9-2.99 1.73-4.53 2.51a95.33 95.33 0 0 1-4.7 2.22 83.63 83.63 0 0 1-4.85 1.85c-.81.3-1.65.54-2.48.8a62.42 62.42 0 0 1-7.58 1.93c-1.72.27-3.43.6-5.18.73-.87.07-1.73.2-2.6.22l-2.63.09c-.87.05-1.75-.05-2.62-.06-.87-.04-1.77-.06-2.62-.15a107.7 107.7 0 0 1-5.16-.55 105.52 105.52 0 0 1-5.15-.76 85.26 85.26 0 0 1-5.12-1.05l-2.53-.69a70.87 70.87 0 0 1-2.49-.84c-.81-.33-1.62-.7-2.42-1.04-.79-.41-1.57-.8-2.34-1.25a22.14 22.14 0 0 1-4.18-3.24l-.93-.95-.8-1.05c-.58-.67-.98-1.47-1.43-2.22-.45-.75-.74-1.58-1.12-2.37-.3-.81-.55-1.65-.83-2.47l-.04-.13.12-.05 1.27-.49.66-.17c.1-.03.22-.04.34-.05.12 0 .23-.02.35.01l-.03.1c-.09-.03-.2 0-.31 0a1.13 1.13 0 0 0-.32.07l-.64.18-1.23.53.03-.06c.3.8.58 1.62.91 2.41.4.76.72 1.56 1.2 2.28.47.72.88 1.47 1.46 2.11l.82 1 .92.9a21.46 21.46 0 0 0 4.13 3.05c.75.41 1.53.78 2.3 1.17.8.32 1.59.65 2.39.95l2.45.8 2.5.66c1.68.37 3.36.72 5.06.99a175.9 175.9 0 0 0 10.25 1.24c.86.1 1.71.11 2.57.16.86.02 1.72.13 2.58.08l2.58-.06c.86-.02 1.71-.13 2.57-.2 1.72-.1 3.41-.43 5.11-.67 1.69-.34 3.38-.65 5.04-1.1.84-.2 1.67-.4 2.5-.66.82-.25 1.65-.46 2.47-.74l2.44-.83 2.43-.9c1.6-.63 3.19-1.29 4.75-2a65.76 65.76 0 0 0 4.61-2.33l.08.12z"/><path fill="#F4DBCB" d="M319.29 506.89c-3.09-4.19-10-6.2-14.3-5.18-.4.1-7.53 3.32-5.5 4.44.62.35 1.5-.8 1.94-1.09a13 13 0 0 1 6.97-2.25c3.95-.06 11.3 1.54 12.93 6.7"/><radialGradient id="s" cx="131.46" cy="421.18" r="31.75" gradientTransform="matrix(1.4622 .3067 -.1622 .7733 106.04 58.17)" gradientUnits="userSpaceOnUse"><stop offset="0" stop-color="#ED7D51" stop-opacity=".9"/><stop offset="1" stop-color="#ED7D51" stop-opacity="0"/></radialGradient><path fill="url(#s)" d="M250.06 402.49a81.07 81.07 0 0 0-29.61-5.34c-20.04.46-48.88 14.6-29.1 34.67 19.64 19.97 84.02 37.2 83.36-2.62-.2-12.64-11.27-21.54-24.65-26.7z" opacity=".5"/><radialGradient id="t" cx="-545.84" cy="413.44" r="31.75" gradientTransform="matrix(-.9685 -.0003 -.00019 .5474 -130.85 194.8)" gradientUnits="userSpaceOnUse"><stop offset="0" stop-color="#ED7D51" stop-opacity=".9"/><stop offset="1" stop-color="#ED7D51" stop-opacity="0"/></radialGradient><path fill="url(#t)" d="M387.84 403.71a49.26 49.26 0 0 1 19.5.6c12.65 3.17 29.06 16.86 13.84 27.65-15.13 10.74-58.27 13.25-52.54-13.65 1.82-8.54 10.02-13 19.2-14.6z" opacity=".5"/><path fill="none" stroke="#BF1F25" stroke-miterlimit="10" d="M341.6 308.23s-7.75 24.3-9.57 49c-1.1 14.82-.05 29.78 6.08 39.73 16.36 26.53 53.36 52.78 103.06 17.48 12.25-22.7 24.62-79.56 13.03-90.42-11.59-10.87-72.68-39.76-112.6-15.8z"/><path fill="#BF1F25" d="M158.45 381.37c11.4 29.7 36.03 31.49 79.38 43.47 50.42 3.64 61.17-30.94 65.35-64.24 4.18-33.3-12.52-55.13-21.68-66.99-64.23-24.69-117.04-4.92-117.04-4.92-17.56 4.5-17.65 8.15-20.38 17.62-3.2 11.1 2.96 45.33 14.37 75.04zm-12.89-77.21c4.4-8.52 3.49-9.53 20.57-13.9 0 0 51.36-19.22 113.84 4.79 8.9 11.53 24.43 33.27 19.46 65.53-4.62 29.97-12.85 65.15-60.33 61.73-35.03-8.79-70.72-12.14-80.44-41.53-10.16-30.7-17.5-68.1-13.1-76.62z"/><linearGradient id="u" x1="180.5" x2="316.97" y1="808.9" y2="945.38" gradientUnits="userSpaceOnUse"><stop offset=".01" stop-color="#E7AB8B"/><stop offset=".28" stop-color="#E9B091"/><stop offset=".63" stop-color="#EFBFA2"/><stop offset="1" stop-color="#F7D5BC"/></linearGradient><path fill="url(#u)" stroke="#0B0B0B" stroke-miterlimit="10" d="M379.14 849.56c3.23-15.7-13.16-17.54-26.36-17.42-5.42.05-11.2.46-15.45 1.13.3-.93.69-3.9 1.19-4.89 2.7-5.31.06-16.23-3.1-18.62-5.52-4.18-11.72-2.7-11.57 3.11.27 10.25-3.6 19.1-5.14 22.94-6.83 4.02-5.83 3.02-9.29 6-2.2 1.92-6.7 6.65-6.7 6.64-28.52 4.25-85.48-6.08-114.5-6.1-29.8-.01-49.52 7.58-71.97 30.83-8.8 16.19-18.36 23.33-2.2 35.8 23.47 18.11 73.52 5.5 102.97 2.58 20.74-2.06 103.69-19.5 103.69-19.5 10.94 5.04 26.52 6.74 38.14 3.8 9.75-2.46 13.56-3.17 16.16-11.47.95-3.04 0-4.33 2.09-8.03 1.88-3.34 2.94-8.71 2.46-13.46-.76-7.24-2.58-2.9-.43-13.35z"/><linearGradient id="v" x1="366.36" x2="369.78" y1="848.21" y2="848.21" gradientUnits="userSpaceOnUse"><stop offset=".01" stop-color="#E7AB8B"/><stop offset=".33" stop-color="#E8AE8E"/><stop offset=".59" stop-color="#EBB698"/><stop offset=".82" stop-color="#F1C5A9"/><stop offset="1" stop-color="#F7D5BC"/></linearGradient><path fill="url(#v)" d="M366.36 843.97c3.58 1.05 3.98 5.7 2.88 8.48"/><path fill="#0B0B0B" d="M366.36 843.97l.44.06c.14.02.3.04.5.13.18.07.42.14.62.28.23.12.45.28.66.48.24.19.42.43.63.68.16.27.36.54.48.86.14.3.23.62.34.94.06.33.14.66.16.99.05.32.03.64.03.95a6.51 6.51 0 0 1-.29 1.65 5.14 5.14 0 0 1-.45 1.09l-.24.37.05-.44a14.8 14.8 0 0 0 .04-2.66c-.02-.28-.06-.56-.1-.85-.03-.28-.1-.57-.17-.85a7.54 7.54 0 0 0-.6-1.58c-.15-.21-.26-.46-.42-.64a3.74 3.74 0 0 0-.46-.53c-.15-.17-.31-.28-.45-.4a2.26 2.26 0 0 0-.4-.29l-.38-.23z"/><linearGradient id="w" x1="367.77" x2="370.78" y1="866.22" y2="866.22" gradientUnits="userSpaceOnUse"><stop offset=".01" stop-color="#E7AB8B"/><stop offset=".33" stop-color="#E8AE8E"/><stop offset=".59" stop-color="#EBB698"/><stop offset=".82" stop-color="#F1C5A9"/><stop offset="1" stop-color="#F7D5BC"/></linearGradient><path fill="url(#w)" d="M367.77 861.01c2.27 2.86 4.78 7.17 1.24 10.41"/><path fill="#0B0B0B" d="M367.77 861.01s.6.46 1.32 1.31c.37.43.75.96 1.1 1.58a9 9 0 0 1 .87 2.08c.08.38.16.77.17 1.16.05.39-.02.78-.06 1.15a4.5 4.5 0 0 1-.77 1.85c-.15.25-.37.42-.52.6-.15.17-.32.28-.45.38l-.43.3.28-.43c.09-.14.2-.29.3-.49.09-.2.23-.4.32-.64.08-.25.2-.5.25-.79.09-.28.1-.58.15-.9 0-.3.01-.63-.03-.96-.02-.33-.1-.66-.18-.99-.16-.66-.41-1.32-.67-1.93a32.94 32.94 0 0 0-.8-1.65c-.52-.94-.86-1.62-.86-1.62z"/><linearGradient id="x" x1="366.77" x2="368.44" y1="883.34" y2="883.34" gradientUnits="userSpaceOnUse"><stop offset=".01" stop-color="#E7AB8B"/><stop offset=".33" stop-color="#E8AE8E"/><stop offset=".59" stop-color="#EBB698"/><stop offset=".82" stop-color="#F1C5A9"/><stop offset="1" stop-color="#F7D5BC"/></linearGradient><path fill="url(#x)" d="M366.77 880.06c1.73 1.6 2.3 4.57.82 6.55"/><path fill="#0B0B0B" d="M366.77 880.06l.28.16c.16.13.43.23.66.52.12.14.26.29.39.46.14.17.22.37.33.57.1.2.23.41.27.65l.18.7.03.74c.03.24-.05.48-.08.7-.05.23-.07.45-.18.64a6.89 6.89 0 0 1-.26.53c-.15.33-.42.52-.56.67l-.24.21.08-.32c.03-.2.16-.44.18-.77.02-.16.04-.33.08-.5.05-.17 0-.37.02-.56.04-.38-.04-.79-.06-1.19-.1-.4-.13-.8-.27-1.17-.07-.18-.1-.38-.17-.54a5.75 5.75 0 0 1-.19-.46c-.1-.31-.29-.56-.36-.74-.09-.18-.13-.3-.13-.3z"/><path fill="#E7AB8B" d="M125.24 863.82c23.44 3.94 37.79 33.78 15.5 45.2-25.5 13.07-48.76-16.93-30-29.66 0 0 7.8-16.66 14.5-15.54z"/><linearGradient id="y" x1="330.55" x2="339.95" y1="820.11" y2="829.51" gradientUnits="userSpaceOnUse"><stop offset=".12" stop-color="#E7AB8B" stop-opacity="0"/><stop offset=".23" stop-color="#DBA385" stop-opacity=".24"/><stop offset=".4" stop-color="#CE9A7D" stop-opacity=".63"/><stop offset=".57" stop-color="#CA977B"/><stop offset=".69" stop-color="#CC9A7E"/><stop offset=".79" stop-color="#D3A488"/><stop offset=".88" stop-color="#DFB499"/><stop offset=".97" stop-color="#EFCAB0"/><stop offset="1" stop-color="#F7D5BC"/></linearGradient><path fill="url(#y)" d="M337.01 813.65s-1.06 11.42-5.89 19.95c5.54.92 5.87-1.44 5.87-1.44s1.65-3.82 2-8.48a18.6 18.6 0 0 0-1.97-10.03z" opacity=".4"/><linearGradient id="z" x1="335.25" x2="339.1" y1="830" y2="833.85" gradientTransform="rotate(8.41 329.43 831.41)" gradientUnits="userSpaceOnUse"><stop offset=".01" stop-color="#E7AB8B"/><stop offset=".28" stop-color="#E9B091"/><stop offset=".63" stop-color="#EFBFA2"/><stop offset="1" stop-color="#F7D5BC"/></linearGradient><path fill="url(#z)" d="M342 832.77c-7.86 1-7.89.13-9.87.55"/><path fill="#0B0B0B" d="M342 832.77l-.4.24a8.23 8.23 0 0 1-.47.25l-.28.14c-.1.05-.22.01-.33.04-.47.05-1 .12-1.59.16-.58.04-1.2.1-1.84.13-.62.02-1.25.05-1.84.03-.6 0-1.16-.04-1.6-.05-.1-.02-.22.02-.31-.02l-.28-.1a3.64 3.64 0 0 0-.48-.15l-.45-.12.4-.25a2.39 2.39 0 0 1 .49-.24l.32-.12c.11-.06.22.01.34 0 .96.04 2.14.1 3.37.02.6-.02 1.22-.09 1.79-.13.56-.03 1.1-.1 1.57-.16.11 0 .22-.06.33-.03l.3.08.52.13.45.15z"/></svg>